<svg width="32" height="32" viewBox="0 0 32 32" fill="none" xmlns="http://www.w3.org/2000/svg">
<circle opacity="0.2" cx="16" cy="16" r="16" fill="#C6C6C6"/>
<circle opacity="0.9" cx="16.0005" cy="15.9995" r="14.1176" fill="#C1C1C1"/>
<g clip-path="url(#clip0_960_39972)">
<path d="M20.5393 8.45312H14.3725C13.752 8.45384 13.1572 8.70064 12.7184 9.13939C12.2797 9.57813 12.0329 10.173 12.0322 10.7935V12.165H11.6607C11.0402 12.1657 10.4453 12.4125 10.0066 12.8513C9.56783 13.29 9.32103 13.8849 9.32031 14.5053V22.1128C9.32103 22.7333 9.56783 23.3281 10.0066 23.7669C10.4453 24.2056 11.0402 24.4524 11.6607 24.4531H16.8274C18.0125 24.4531 18.9847 23.5636 19.1366 22.4192H20.5393C21.1598 22.4185 21.7546 22.1717 22.1934 21.733C22.6321 21.2942 22.8789 20.6994 22.8796 20.0789V10.7935C22.8789 10.173 22.6321 9.57813 22.1934 9.13939C21.7546 8.70064 21.1598 8.45384 20.5393 8.45312ZM21.5237 20.0789C21.5237 20.6213 21.0823 21.0633 20.5393 21.0633H19.1678V14.5053C19.1671 13.8849 18.9203 13.29 18.4815 12.8513C18.0428 12.4125 17.4479 12.1657 16.8274 12.165H13.3881V10.7935C13.3881 10.2511 13.8295 9.80906 14.3725 9.80906H20.5393C21.0817 9.80906 21.5237 10.2504 21.5237 10.7935V20.0789Z" fill="white"/>
</g>
<defs>
<clipPath id="clip0_960_39972">
<rect width="20" height="20" fill="white" transform="translate(5.5 6)"/>
</clipPath>
</defs>
</svg>
