<svg width="32" height="32" viewBox="0 0 32 32" fill="none" xmlns="http://www.w3.org/2000/svg">
<circle opacity="0.2" cx="16" cy="16" r="16" fill="#D73937"/>
<circle opacity="0.9" cx="16.0005" cy="15.9995" r="14.1176" fill="#D73937"/>
<path d="M20.6458 17.699C19.9606 17.699 19.2878 17.5919 18.6502 17.3812C18.3378 17.2746 17.9537 17.3724 17.763 17.5682L16.5046 18.5182C15.0451 17.7392 14.1461 16.8404 13.3777 15.3919L14.2997 14.1663C14.5393 13.927 14.6252 13.5775 14.5223 13.2496C14.3106 12.6087 14.2032 11.9362 14.2032 11.2507C14.2032 10.7554 13.8003 10.3525 13.3051 10.3525H11.2497C10.7545 10.3525 10.3516 10.7554 10.3516 11.2506C10.3516 16.927 14.9695 21.5449 20.6458 21.5449C21.141 21.5449 21.5439 21.142 21.5439 20.6468V18.5971C21.5439 18.1019 21.141 17.699 20.6458 17.699Z" fill="white"/>
</svg>
