<svg width="32" height="32" viewBox="0 0 32 32" fill="none" xmlns="http://www.w3.org/2000/svg">
<circle opacity="0.2" cx="16" cy="16" r="16" fill="#359DDC"/>
<circle opacity="0.9" cx="16.0005" cy="15.9995" r="14.1176" fill="#359DDC"/>
<path fill-rule="evenodd" clip-rule="evenodd" d="M7.54477 15.8602C11.7769 14.0294 14.599 12.8224 16.0109 12.2393C20.0426 10.5743 20.8803 10.2851 21.4263 10.2755C21.5464 10.2734 21.8149 10.303 21.9888 10.4431C22.2469 10.651 22.2483 11.1022 22.2197 11.4009C22.0012 13.6802 21.0559 19.2113 20.5749 21.7641C20.3714 22.8443 19.9707 23.2065 19.5828 23.2419C18.7398 23.319 18.0996 22.6887 17.2831 22.1573C16.0054 21.3257 15.2835 20.808 14.0433 19.9965C12.61 19.0587 13.5391 18.5432 14.356 17.7008C14.5697 17.4804 18.2842 14.1257 18.3561 13.8214C18.3651 13.7833 18.3735 13.6414 18.2886 13.5665C18.2037 13.4917 18.0784 13.5172 17.988 13.5376C17.8599 13.5665 15.8187 14.9061 11.8645 17.5563C11.2851 17.9513 10.7604 18.1438 10.2902 18.1337C9.77182 18.1226 8.77478 17.8427 8.03354 17.6035C7.12439 17.3101 6.40181 17.1549 6.46476 16.6566C6.49754 16.3969 6.85752 16.1315 7.54477 15.8602Z" fill="white"/>
</svg>
