<svg width="32" height="32" viewBox="0 0 32 32" fill="none" xmlns="http://www.w3.org/2000/svg">
<circle opacity="0.2" cx="16" cy="16" r="16" fill="#54D062"/>
<circle opacity="0.9" cx="16.0005" cy="15.9995" r="14.1176" fill="#54D062"/>
<path d="M16.003 7.98633H15.999C11.581 7.98633 7.98828 11.58 7.98828 15.999C7.98828 17.7518 8.55318 19.3764 9.5137 20.6955L8.51512 23.6722L11.595 22.6877C12.862 23.527 14.3734 24.0118 16.003 24.0118C20.421 24.0118 24.0137 20.4171 24.0137 15.999C24.0137 11.581 20.421 7.98633 16.003 7.98633ZM20.6654 19.3013C20.4721 19.8472 19.7049 20.2999 19.0929 20.4321C18.6742 20.5212 18.1274 20.5923 16.2865 19.8291C13.9317 18.8536 12.4153 16.4608 12.2971 16.3055C12.1839 16.1503 11.3456 15.0385 11.3456 13.8887C11.3456 12.7389 11.9295 12.179 12.1649 11.9386C12.3582 11.7413 12.6777 11.6511 12.9842 11.6511C13.0834 11.6511 13.1725 11.6562 13.2526 11.6602C13.488 11.6702 13.6062 11.6842 13.7614 12.0558C13.9548 12.5215 14.4255 13.6714 14.4816 13.7895C14.5387 13.9077 14.5958 14.068 14.5156 14.2232C14.4405 14.3835 14.3744 14.4546 14.2562 14.5908C14.138 14.727 14.0259 14.8312 13.9077 14.9774C13.7995 15.1046 13.6773 15.2408 13.8135 15.4762C13.9497 15.7066 14.4205 16.4748 15.1136 17.0918C16.008 17.888 16.7332 18.1424 16.9926 18.2506C17.1859 18.3307 17.4162 18.3117 17.5575 18.1615C17.7368 17.9682 17.9581 17.6477 18.1835 17.3322C18.3437 17.1058 18.546 17.0778 18.7584 17.1579C18.9747 17.233 20.1195 17.7989 20.3549 17.9161C20.5903 18.0343 20.7455 18.0904 20.8026 18.1895C20.8587 18.2887 20.8587 18.7544 20.6654 19.3013Z" fill="white"/>
</svg>
