<svg width="506" height="121" viewBox="0 0 506 121" fill="none" xmlns="http://www.w3.org/2000/svg">
<path fill-rule="evenodd" clip-rule="evenodd" d="M110.483 0.5H11.0767C8.35808 0.5 5.75082 1.58096 3.82848 3.50508C1.90613 5.42921 0.826172 8.03888 0.826172 10.76V110.24C0.826172 112.961 1.90613 115.571 3.82848 117.495C5.75082 119.419 8.35808 120.5 11.0767 120.5H110.483C113.198 120.495 115.801 119.412 117.719 117.489C119.638 115.565 120.715 112.958 120.715 110.24V10.76C120.715 8.04199 119.638 5.43505 117.719 3.51143C115.801 1.58783 113.198 0.504763 110.483 0.5ZM112.761 77.678C112.754 86.9155 109.083 95.7725 102.554 102.302C96.0257 108.831 87.1738 112.498 77.9448 112.496H43.6745C34.4471 112.496 25.5975 108.828 19.0719 102.298C12.5463 95.7678 8.8791 86.9109 8.87672 77.675V43.304C8.87632 38.7302 9.77617 34.2012 11.5249 29.9756C13.2735 25.75 15.8368 21.9106 19.0682 18.6767C22.2997 15.4429 26.1359 12.8779 30.358 11.1283C34.58 9.37872 39.105 8.47882 43.6745 8.48H78.0197C87.2485 8.48159 96.0992 12.1504 102.627 18.6802C109.155 25.21 112.825 34.0667 112.832 43.304L112.755 77.675L112.761 77.678Z" fill="white"/>
<path fill-rule="evenodd" clip-rule="evenodd" d="M131.169 11.8494V3.77641H133.95C134.649 3.74341 135.35 3.8154 136.024 3.98641C136.444 4.12741 136.804 4.40641 137.043 4.77541C137.243 5.06674 137.368 5.40309 137.406 5.75436C137.444 6.10561 137.395 6.46089 137.262 6.78841C137.152 7.05361 136.989 7.29349 136.783 7.49341C136.348 7.94131 135.758 8.20452 135.134 8.2284C135.389 8.3276 135.623 8.47191 135.827 8.6544C136.285 9.15841 136.69 9.70441 137.028 10.2924L138.018 11.9304H136.369L135.65 10.6524C135.309 9.94864 134.845 9.31159 134.28 8.7714C133.968 8.56907 133.599 8.47136 133.228 8.49241H132.455V11.9304L131.169 11.8494ZM132.47 7.2954H134.118C134.656 7.35178 135.198 7.23175 135.662 6.95341C135.799 6.85107 135.909 6.71724 135.984 6.56323C136.058 6.40921 136.095 6.23951 136.09 6.06841C136.099 5.83668 136.023 5.60969 135.878 5.42941C135.744 5.23604 135.555 5.08757 135.335 5.00341C134.907 4.88072 134.461 4.83103 134.016 4.85641H132.518L132.47 7.2954Z" fill="white"/>
<path fill-rule="evenodd" clip-rule="evenodd" d="M134.166 0.500411C135.467 0.50341 136.747 0.83641 137.883 1.46641C139.073 2.0964 140.053 3.0594 140.7 4.2354C141.352 5.3775 141.695 6.67008 141.695 7.9854C141.695 9.30074 141.352 10.5933 140.7 11.7354C140.05 12.9054 139.082 13.8714 137.901 14.5194C136.755 15.1633 135.462 15.5011 134.148 15.5004C132.866 15.4755 131.611 15.1322 130.494 14.5014C129.324 13.8546 128.359 12.8895 127.713 11.7174C127.053 10.578 126.706 9.28436 126.706 7.96741C126.706 6.65046 127.053 5.35685 127.713 4.21741C128.351 3.0354 129.317 2.0574 130.494 1.4004C131.623 0.796697 132.886 0.487183 134.166 0.500411ZM134.166 1.7304C133.082 1.73904 132.018 2.01959 131.07 2.5464C130.081 3.07741 129.266 3.8784 128.717 4.85641C128.172 5.80847 127.885 6.88664 127.885 7.9839C127.885 9.08117 128.172 10.1593 128.717 11.1114C129.257 12.0864 130.069 12.8874 131.055 13.4214C132.006 13.9698 133.085 14.2584 134.183 14.2584C135.28 14.2584 136.359 13.9698 137.31 13.4214C138.293 12.8874 139.106 12.0864 139.648 11.1114C140.193 10.1593 140.48 9.08117 140.48 7.9839C140.48 6.88664 140.193 5.80847 139.648 4.85641C139.103 3.87424 138.284 3.07172 137.292 2.5464C136.336 2.01472 135.26 1.73401 134.166 1.7304Z" fill="white"/>
<path d="M415.587 30.4797H424.368L424.372 30.4759V39.8359H415.587V30.4797Z" fill="white"/>
<path fill-rule="evenodd" clip-rule="evenodd" d="M176.478 30.4797H202.143L202.147 30.4759C209.337 30.4759 235.394 30.8904 235.394 65.8812C235.394 100.872 210.523 101.682 198.645 101.682H176.478V30.4797ZM185.859 93.6446H198.951C216.923 93.6446 225.412 85.0948 225.412 66.0809C225.412 44.5235 213.519 38.5171 201.644 38.5171H185.859V93.6446Z" fill="white"/>
<path fill-rule="evenodd" clip-rule="evenodd" d="M250.869 57.1316C255.958 49.2939 263.25 47.9751 267.644 47.9751L267.64 47.96C280.116 47.96 290.506 55.7977 290.506 75.8365C290.506 95.8754 279.421 103.713 267.837 103.713C265.842 103.713 255.652 103.204 251.16 94.2551V120.5H242.38V50.0174H250.563V57.1316H250.869ZM250.563 76.0513C250.563 92.013 259.555 97.409 266.246 97.409C273.33 97.409 281.219 92.3107 281.219 75.8365C281.219 62.5162 275.726 54.2791 265.744 54.2791C261.24 54.2791 250.563 56.5212 250.563 76.0513Z" fill="white"/>
<path d="M306.785 50.0023V59.9728H306.997C309.396 52.3461 316.673 48.3707 323.768 48.073L326.364 47.9751V54.2829C314.58 54.7916 307.681 59.3661 306.887 72.3887C306.789 73.2966 306.789 74.2195 306.789 75.1311V101.682H298.005V50.0023H306.785Z" fill="white"/>
<path fill-rule="evenodd" clip-rule="evenodd" d="M326.738 75.8516C326.738 62.1168 333.232 47.9751 351.707 47.9751C370.178 47.9751 376.677 62.1168 376.677 75.8516C376.677 89.5826 370.178 103.728 351.711 103.728C333.236 103.728 326.738 89.5826 326.738 75.8516ZM336.024 75.7386C336.024 96.5009 347.816 97.409 351.707 97.409L351.711 97.4052C355.61 97.4052 367.39 96.4858 367.39 75.7386C367.39 54.9875 355.61 54.0643 351.707 54.0643C347.804 54.0643 336.024 54.9762 336.024 75.7386Z" fill="white"/>
<path d="M387.663 49.9986V42.9898H387.648C387.648 34.0293 391.94 30.0652 401.03 30.0652C402.396 30.0652 404.39 30.2273 405.956 30.3547C406.566 30.4042 407.111 30.4485 407.529 30.4759V36.7838C404.21 36.5538 402.866 36.6185 402.009 36.6597C401.757 36.6719 401.546 36.682 401.34 36.682C396.542 36.682 396.444 41.6672 396.444 43.7962V49.9986H407.529V56.3101H396.444V101.678H387.663V56.3064H378.279V49.9986H387.663Z" fill="white"/>
<path d="M415.587 50.0023H424.368L424.372 101.682H415.587V50.0023Z" fill="white"/>
<path d="M438.562 30.4797H447.346V101.682H438.562V30.4797Z" fill="white"/>
<path fill-rule="evenodd" clip-rule="evenodd" d="M466.124 77.8826C466.124 86.7301 470.612 97.409 482.199 97.409H482.211C490.7 97.409 495.192 92.4238 496.292 86.7301H504.687C503.391 94.0441 498.09 103.713 482.52 103.713C457.354 103.713 456.852 80.7351 456.852 76.0475C456.852 68.9333 458.152 47.9751 481.614 47.9751C501.883 47.9751 504.573 64.1478 505.076 75.3391C505.076 75.7442 505.1 76.1775 505.125 76.6109C505.149 77.0442 505.174 77.4775 505.174 77.8826H466.124ZM495.876 71.5748C495.57 64.6603 493.281 54.2791 481.795 54.2791H481.806C468.814 54.2791 466.124 65.071 466.124 71.5748H495.876Z" fill="white"/>
</svg>
