<svg width="165" height="50" viewBox="0 0 165 50" fill="none" xmlns="http://www.w3.org/2000/svg">
<path d="M42.2929 49.5H8V41H35H35.5V40.5V7.70711L42.7071 0.5H49.5V42.2929L42.2929 49.5ZM14.5 22.5V23H15H29.5V32.5H7.75731L0.5 22.3398V7.5V0.5H7.29289L14.5 7.70711V22.5Z" fill="#222222" stroke="#222222"/>
<path d="M65.1994 0.5H72V22.5V23H72.5H87V32.5H72.5H72V33V49.5H58V7.32699L65.1994 0.5ZM107 7.70711V49.5H93V10.5V10H92.5H78V0.5H92.5H99.7929L107 7.70711Z" fill="#222222" stroke="#222222"/>
<path d="M144.5 22.7071V36.0934L130.355 21.8566L129.5 20.9964V22.2091V42.2929L122.293 49.5H115.5V42.5V7.11207V0.5H122.293L129.646 7.85355L144.5 22.7071ZM150.5 0.5H157.293L164.5 7.70711V42.5V49.5H157.707L150.5 42.2929V27.5V26V13V0.5Z" fill="#222222" stroke="#222222"/>
</svg>
