<svg width="16" height="16" viewBox="0 0 16 16" fill="none" xmlns="http://www.w3.org/2000/svg">
<g clip-path="url(#clip0_388_796)">
<path d="M15.8647 7.67628L8.98973 0.80128C8.81073 0.622229 8.52062 0.622229 8.34162 0.80128C8.16262 0.980331 8.16262 1.27037 8.34162 1.44938L14.4343 7.54201H0.99955C0.99955 7.54201 0.5 7.54201 0.498051 8C0.495924 8.5 0.998052 8.5 0.998052 8.5L14.4343 8.4587L8.34162 14.5513C8.16262 14.7304 8.16262 15.0204 8.34162 15.1994C8.43112 15.2889 8.54843 15.3337 8.66573 15.3337C8.78303 15.3337 8.90023 15.2889 8.98983 15.1994L15.8648 8.32438C16.0438 8.14537 16.0438 7.85533 15.8647 7.67628Z" fill="white"/>
</g>
<defs>
<clipPath id="clip0_388_796">
<rect width="16" height="16" fill="white"/>
</clipPath>
</defs>
</svg>
