<svg width="20" height="23" viewBox="0 0 20 23" fill="none" xmlns="http://www.w3.org/2000/svg">
<path d="M13.6186 7.52646L12.2226 6.13146L5.24463 13.1095C4.69503 13.6658 4.38793 14.417 4.39041 15.1991C4.3929 15.9811 4.70475 16.7304 5.25786 17.2832C5.81098 17.8361 6.5604 18.1476 7.34243 18.1497C8.12446 18.1518 8.87554 17.8443 9.43163 17.2945L17.8056 8.92246C18.2637 8.46428 18.6271 7.92035 18.875 7.32173C19.1229 6.72311 19.2505 6.08153 19.2505 5.43361C19.2504 4.78569 19.1228 4.14412 18.8748 3.54554C18.6268 2.94695 18.2633 2.40308 17.8051 1.94496C17.3469 1.48684 16.803 1.12346 16.2044 0.875553C15.6058 0.627647 14.9642 0.500076 14.3163 0.500122C13.6684 0.500169 13.0268 0.627832 12.4282 0.875823C11.8296 1.12381 11.2857 1.48728 10.8276 1.94546L2.03562 10.7355L2.01562 10.7545C1.37661 11.3933 0.869698 12.1517 0.523853 12.9864C0.178007 13.8212 0 14.7159 0 15.6195C0 16.523 0.178007 17.4177 0.523853 18.2525C0.869698 19.0872 1.37661 19.8457 2.01562 20.4845C3.3064 21.775 5.05689 22.4999 6.88212 22.4999C8.70736 22.4999 10.4579 21.775 11.7486 20.4845L11.7666 20.4655L11.7676 20.4675L17.7696 14.4675L16.3736 13.0725L10.3716 19.0715L10.3546 19.0895C9.43355 20.0087 8.18541 20.5249 6.88412 20.5249C5.58284 20.5249 4.3347 20.0087 3.41362 19.0895C2.95692 18.6319 2.59504 18.0888 2.34873 17.4911C2.10242 16.8934 1.97654 16.253 1.97831 15.6065C1.98007 14.9601 2.10945 14.3203 2.35902 13.724C2.60858 13.1277 2.97343 12.5865 3.43262 12.1315L3.43062 12.1305L12.2246 3.34046C12.7802 2.7858 13.5331 2.47427 14.3181 2.47427C15.1031 2.47427 15.8561 2.7858 16.4116 3.34046C16.9659 3.89578 17.2772 4.64834 17.2772 5.43296C17.2772 6.21758 16.9659 6.97014 16.4116 7.52546L8.03763 15.8985C7.8513 16.077 7.60245 16.1755 7.34441 16.1728C7.08636 16.17 6.83964 16.0664 6.6571 15.884C6.47456 15.7016 6.37072 15.4549 6.36783 15.1969C6.36493 14.9388 6.46322 14.6899 6.64162 14.5035L13.6196 7.52546L13.6186 7.52646Z" fill="white"/>
</svg>
