<svg width="30" height="30" viewBox="0 0 30 30" fill="none" xmlns="http://www.w3.org/2000/svg">
<path fill-rule="evenodd" clip-rule="evenodd" d="M21.4952 11.477C21.5963 11.1567 21.4952 10.9237 21.0475 10.9237H19.5599C19.1845 10.9237 19.0111 11.1276 18.9101 11.3459C18.9101 11.3459 18.1446 13.2094 17.0759 14.4178C16.7293 14.7672 16.5705 14.8836 16.3827 14.8836C16.2816 14.8836 16.1516 14.7672 16.1516 14.4469V11.4624C16.1516 11.0839 16.0361 10.9092 15.7184 10.9092H13.3788C13.1477 10.9092 13.0033 11.0839 13.0033 11.2586C13.0033 11.6225 13.5376 11.7099 13.5954 12.729V14.9419C13.5954 15.4223 13.5088 15.5096 13.321 15.5096C12.8156 15.5096 11.588 13.6316 10.8514 11.4915C10.707 11.0693 10.5626 10.9092 10.1871 10.9092H8.68516C8.2519 10.9092 8.17969 11.113 8.17969 11.3314C8.17969 11.7244 8.68516 13.7044 10.5337 16.3249C11.7613 18.1156 13.5088 19.0764 15.0829 19.0764C16.0361 19.0764 16.1516 18.8581 16.1516 18.4941V17.1402C16.1516 16.7034 16.2383 16.6306 16.5416 16.6306C16.7582 16.6306 17.1481 16.7471 18.0291 17.606C19.04 18.6251 19.2133 19.091 19.7766 19.091H21.2641C21.6973 19.091 21.8995 18.8726 21.784 18.4504C21.654 18.0282 21.163 17.4168 20.5276 16.6889C20.1809 16.2812 19.661 15.8299 19.5022 15.6115C19.2855 15.3204 19.3433 15.2039 19.5022 14.9419C19.4877 14.9419 21.3074 12.3505 21.4952 11.477Z" fill="#222222"/>
<path fill-rule="evenodd" clip-rule="evenodd" d="M8.18182 2C5.16935 2 2 5.16935 2 8.18182V21.8182C2 24.8306 5.16935 28 8.18182 28H21.8182C24.8306 28 28 25.0125 28 22V8.28595C28 5.27349 24.8306 2 21.8182 2H8.18182ZM0 8.18182C0 3.66314 3.66314 0 8.18182 0H21.8182C26.3369 0 30 3.66314 30 8.18182V21.8182C30 26.3369 26.3369 30 21.8182 30H8.18182C3.66314 30 0 26.3369 0 21.8182V8.18182Z" fill="#222222"/>
</svg>
