<svg width="33" height="33" viewBox="0 0 33 33" fill="none" xmlns="http://www.w3.org/2000/svg">
<path d="M17.0628 30.7422C25.2985 30.7389 31.9967 24.0711 32 15.8766C32.0016 11.9045 30.4493 8.1696 27.6291 5.3598C24.809 2.54986 21.0586 1.00172 17.0627 1C8.82937 1 2.12851 7.66843 2.12523 15.8648C2.12411 18.4849 2.81194 21.0422 4.11912 23.2967L2 31L9.91847 28.9328C12.1002 30.1171 14.5567 30.7413 17.0566 30.7422H17.0628Z" stroke="#222222" stroke-width="2"/>
<path d="M23.7672 19.3127C23.6834 19.162 23.4597 19.0715 23.1242 18.8906C22.7887 18.7097 21.1392 17.8355 20.8316 17.7148C20.5241 17.5942 20.3004 17.534 20.0768 17.8957C19.8531 18.2574 19.2102 19.0715 19.0144 19.3127C18.8187 19.5538 18.623 19.5841 18.2876 19.4032C17.9521 19.2223 16.871 18.8407 15.5895 17.6094C14.5921 16.6511 13.9188 15.4677 13.7231 15.1059C13.5273 14.7441 13.7022 14.5486 13.8701 14.3684C14.0211 14.2064 14.2057 13.9461 14.3734 13.7352C14.5412 13.5242 14.5971 13.3734 14.7089 13.1323C14.8207 12.891 14.7648 12.6801 14.6809 12.4992C14.5971 12.3183 13.9261 10.5394 13.6465 9.81579C13.3742 9.11109 13.0976 9.20655 12.8916 9.19542C12.6962 9.18484 12.4723 9.18262 12.2486 9.18262C12.025 9.18262 11.6615 9.27307 11.3539 9.63488C11.0464 9.99669 10.1797 10.871 10.1797 12.6497C10.1797 14.4286 11.3819 16.1471 11.5496 16.3882C11.7174 16.6295 13.9154 20.2797 17.2811 21.8452C18.0815 22.2175 18.7064 22.4399 19.1937 22.6064C19.9974 22.8815 20.7289 22.8427 21.3069 22.7496C21.9516 22.6459 23.2919 21.8754 23.5716 21.0313C23.8511 20.187 23.8511 19.4634 23.7672 19.3127Z" fill="#222222"/>
</svg>
