<svg width="30" height="30" viewBox="0 0 30 30" fill="none" xmlns="http://www.w3.org/2000/svg">
<path d="M9.18124 14.6515C10.4089 13.9711 11.7792 13.4033 13.0597 12.8325C15.2625 11.8976 17.474 10.9789 19.7079 10.1236C20.1425 9.97788 20.9234 9.83539 21 10.4835C20.9581 11.4008 20.7856 12.3128 20.6673 13.2248C20.367 15.2304 20.0199 17.2291 19.6814 19.228C19.5648 19.8939 18.7358 20.2386 18.2054 19.8125C16.9307 18.9461 15.6462 18.0881 14.3877 17.2017C13.9755 16.7802 14.3578 16.1749 14.7259 15.874C15.7758 14.8329 16.8893 13.9484 17.8843 12.8535C18.1527 12.2013 17.3596 12.7509 17.0981 12.9194C15.6607 13.916 14.2586 14.9734 12.7432 15.8493C11.9692 16.2781 11.067 15.9117 10.2933 15.6725C9.59958 15.3834 8.58302 15.0923 9.18117 14.6516L9.18124 14.6515Z" fill="#222222"/>
<path fill-rule="evenodd" clip-rule="evenodd" d="M8.18182 2C5.16935 2 2 5.16935 2 8.18182V21.8182C2 24.8306 5.16935 28 8.18182 28H21.8182C24.8306 28 28 24.8306 28 21.8182V8.18182C28 5.16935 24.8306 2 21.8182 2H8.18182ZM0 8.18182C0 3.66314 3.66314 0 8.18182 0H21.8182C26.3369 0 30 3.66314 30 8.18182V21.8182C30 26.3369 26.3369 30 21.8182 30H8.18182C3.66314 30 0 26.3369 0 21.8182V8.18182Z" fill="#222222"/>
</svg>
