<svg width="51" height="51" viewBox="0 0 51 51" fill="none" xmlns="http://www.w3.org/2000/svg">
<path d="M7.94844 7.43559C-1.81094 17.195 -1.81094 33.0162 7.94844 42.7775C17.7078 52.5387 33.5291 52.5368 43.2903 42.7775C53.0516 33.0162 53.0516 17.1968 43.2903 7.43559C33.5291 -2.32566 17.7097 -2.32378 7.94844 7.43559ZM41.8747 41.3618C32.9103 50.3262 18.3247 50.3262 9.36031 41.3618C0.395937 32.3975 0.395937 17.8118 9.36031 8.84746C18.3247 -0.11691 32.9103 -0.11691 41.8747 8.84746C50.8391 17.8118 50.8372 32.3975 41.8747 41.3618Z" fill="black"/>
<path d="M15.7223 13.7975L14.3086 15.2112L24.2048 25.1075L14.3555 34.9568L15.7692 36.3706L25.6186 26.5212L35.468 36.3706L36.8817 34.9568L27.0323 25.1075L36.9286 15.2112L35.5148 13.7975L25.6186 23.6937L15.7223 13.7975Z" fill="black"/>
</svg>
