<svg width="51" height="51" viewBox="0 0 51 51" fill="none" xmlns="http://www.w3.org/2000/svg">
<path d="M25.3598 17.2034C30.0275 17.2034 33.8133 13.4201 33.8133 8.74987C33.8133 4.07959 30.0275 0.296387 25.3598 0.296387C20.692 0.296387 16.9062 4.07959 16.9062 8.74987C16.9062 13.4201 20.692 17.2034 25.3598 17.2034Z" fill="#222222"/>
<path d="M10.1969 17.0219C14.0287 16.2193 16.9071 12.8194 16.9071 8.74987C16.9071 4.0796 13.1238 0.296387 8.45351 0.296387C3.78324 0.296387 0 4.0796 0 8.74987C0 12.822 2.87834 16.2193 6.71016 17.0219C2.87834 17.8246 0 21.2244 0 25.2939C0 29.9642 3.7858 33.7475 8.45351 33.7475C13.1212 33.7475 16.9071 29.9616 16.9071 25.2939C16.9071 21.2244 14.0287 17.8246 10.1969 17.0219Z" fill="#222222"/>
<path d="M25.3637 33.3896C20.696 33.3896 16.9102 37.1729 16.9102 41.8431C16.9102 46.5134 20.696 50.2967 25.3637 50.2967C30.0314 50.2967 33.8172 46.5134 33.8172 41.8431C33.8172 37.1729 30.0314 33.3896 25.3637 33.3896Z" fill="#222222"/>
<path d="M44.0133 33.5684C47.8451 32.7658 50.7235 29.3659 50.7235 25.2938C50.7235 20.6261 46.9377 16.8403 42.27 16.8403C37.6022 16.8403 33.8164 20.6261 33.8164 25.2938C33.8164 29.3659 36.6947 32.7632 40.5266 33.5684C36.6947 34.3711 33.8164 37.7709 33.8164 41.8405C33.8164 46.5108 37.5997 50.294 42.27 50.294C46.9402 50.294 50.7235 46.5108 50.7235 41.8405C50.7235 37.7684 47.8451 34.3711 44.0133 33.5684Z" fill="#222222"/>
</svg>
