<svg width="52" height="50" viewBox="0 0 52 50" fill="none" xmlns="http://www.w3.org/2000/svg">
<path d="M9.38323 16.907C14.052 16.907 17.8368 13.1222 17.8368 8.45348C17.8368 3.78473 14.052 0 9.38323 0C4.71448 0 0.929688 3.78473 0.929688 8.45348C0.929688 13.1222 4.71448 16.907 9.38323 16.907Z" fill="#222222"/>
<path d="M43.1977 16.907C47.8654 16.907 51.6512 13.1238 51.6512 8.45348C51.6512 3.78321 47.8654 0 43.1977 0C38.53 0 34.7441 3.78321 34.7441 8.45348C34.7441 13.1238 38.53 16.907 43.1977 16.907Z" fill="#222222"/>
<path d="M9.38323 50.0003C14.052 50.0003 17.8368 46.2155 17.8368 41.5467C17.8368 36.878 14.052 33.0933 9.38323 33.0933C4.71448 33.0933 0.929688 36.878 0.929688 41.5467C0.929688 46.2155 4.71448 50.0003 9.38323 50.0003Z" fill="#222222"/>
<path d="M28.0348 33.2722C31.8666 32.4695 34.7449 29.0696 34.7449 24.9975C34.7449 20.9254 31.8666 17.5282 28.0348 16.7255C31.8666 15.9229 34.7449 12.523 34.7449 8.45348C34.7449 3.78321 30.9616 0 26.2914 0C21.6211 0 17.8379 3.78321 17.8379 8.45348C17.8379 12.5256 20.7162 15.9229 24.5481 16.7255C20.7162 17.5282 17.8379 20.928 17.8379 24.9975C17.8379 29.0671 20.7162 32.4669 24.5481 33.2722C20.7162 34.0748 17.8379 37.4747 17.8379 41.5442C17.8379 46.2145 21.6237 49.9977 26.2914 49.9977C30.9591 49.9977 34.7449 46.2145 34.7449 41.5442C34.7449 37.4721 31.8666 34.0748 28.0348 33.2722Z" fill="#222222"/>
<path d="M43.1977 33.0933C38.5274 33.0933 34.7441 36.8765 34.7441 41.5467C34.7441 46.217 38.53 50.0003 43.1977 50.0003C47.8654 50.0003 51.6512 46.217 51.6512 41.5467C51.6512 36.8765 47.8654 33.0933 43.1977 33.0933Z" fill="#222222"/>
</svg>
