<svg width="51" height="50" viewBox="0 0 51 50" fill="none" xmlns="http://www.w3.org/2000/svg">
<path d="M27.1046 16.7263C30.9366 15.9236 33.815 12.5236 33.815 8.45387C33.815 3.78338 30.0316 0 25.3611 0C20.6906 0 16.9072 3.78338 16.9072 8.45387C16.9072 12.5262 19.7857 15.9236 23.6177 16.7263C19.7857 17.529 16.9072 20.9289 16.9072 24.9987C16.9072 29.0684 19.7857 32.4684 23.6177 33.2737C19.7857 34.0764 16.9072 37.4764 16.9072 41.5461C16.9072 46.2166 20.6932 50 25.3611 50C30.0291 50 33.815 46.2166 33.815 41.5461C33.815 37.4738 30.9366 34.0764 27.1046 33.2737C30.9366 32.471 33.815 29.071 33.815 24.9987C33.815 20.9264 30.9366 17.529 27.1046 16.7263Z" fill="#222222"/>
<path d="M44.0128 16.7263C47.8448 15.9236 50.7233 12.5236 50.7233 8.45387C50.7233 3.78338 46.9373 0 42.2693 0C37.6014 0 33.8154 3.78338 33.8154 8.45387C33.8154 12.5262 36.6939 15.9236 40.5259 16.7263C36.6939 17.529 33.8154 20.929 33.8154 24.9987C33.8154 29.6692 37.6014 33.4526 42.2693 33.4526C46.9373 33.4526 50.7233 29.6666 50.7233 24.9987C50.7233 20.929 47.8448 17.529 44.0128 16.7263Z" fill="#222222"/>
<path d="M10.1974 33.2738C14.0294 32.4711 16.9078 29.0711 16.9078 24.9988C16.9078 20.3309 13.1219 16.5449 8.45392 16.5449C3.78599 16.5449 0 20.3309 0 24.9988C0 29.0711 2.87847 32.4685 6.71047 33.2738C2.87847 34.0765 0 37.4765 0 41.5462C0 46.2167 3.78343 50.0001 8.45392 50.0001C13.1244 50.0001 16.9078 46.2167 16.9078 41.5462C16.9078 37.4739 14.0294 34.0765 10.1974 33.2738Z" fill="#222222"/>
</svg>
