<svg width="51" height="50" viewBox="0 0 51 50" fill="none" xmlns="http://www.w3.org/2000/svg">
<path d="M48.5122 8.83668C48.7555 4.44286 45.3909 0.683676 40.9971 0.440331C36.6032 0.196986 32.8441 3.56163 32.6008 7.95545C32.3574 12.3493 35.722 16.1084 40.1158 16.3517C44.5097 16.5951 48.2688 13.2305 48.5122 8.83668Z" fill="#222222"/>
<path d="M8.68668 16.0234C4.2871 16.0234 0.71875 19.5917 0.71875 23.9913C0.71875 28.3909 4.2871 31.9592 8.68668 31.9592C13.0863 31.9592 16.6545 28.3909 16.6545 23.9913C16.6545 19.5917 13.0887 16.0234 8.68668 16.0234Z" fill="#222222"/>
<path d="M26.2635 31.7891C29.8752 31.0325 32.5882 27.828 32.5882 23.9898C32.5882 20.1516 29.8752 16.9495 26.2635 16.193C29.8752 15.4364 32.5882 12.2319 32.5882 8.39609C32.5882 3.9941 29.0199 0.428223 24.6203 0.428223C20.2207 0.428223 16.6523 3.9941 16.6523 8.39609C16.6523 12.2343 19.3653 15.4364 22.977 16.193C19.3653 16.9495 16.6523 20.154 16.6523 23.9898C16.6523 27.8256 19.3653 31.0301 22.977 31.7891C19.3653 32.5456 16.6523 35.7501 16.6523 39.5859C16.6523 43.9879 20.2207 47.5538 24.6203 47.5538C29.0199 47.5538 32.5882 43.9879 32.5882 39.5859C32.5882 35.7477 29.8752 32.5456 26.2635 31.7891Z" fill="#222222"/>
<path d="M47.9204 42.6384C49.6044 38.5728 47.6737 33.9118 43.6082 32.2278C39.5426 30.5438 34.8816 32.4744 33.1976 36.54C31.5136 40.6056 33.4442 45.2665 37.5098 46.9505C41.5754 48.6346 46.2363 46.704 47.9204 42.6384Z" fill="#222222"/>
</svg>
