<svg width="48" height="51" viewBox="0 0 48 51" fill="none" xmlns="http://www.w3.org/2000/svg">
<path d="M27.4332 17.8169C31.4413 16.1567 33.3446 11.5617 31.6844 7.5537C30.0242 3.54567 25.4292 1.64241 21.4212 3.30259C17.4132 4.96277 15.5099 9.5577 17.1701 13.5657C18.8302 17.5738 23.4252 19.4771 27.4332 17.8169Z" fill="#222222"/>
<path d="M41.7563 18.2461C45.3169 17.5003 47.9915 14.3411 47.9915 10.5597C47.9915 6.21999 44.4737 2.70459 40.1364 2.70459C35.7991 2.70459 32.2812 6.21999 32.2812 10.5597C32.2812 14.3435 34.9558 17.5003 38.5164 18.2461C34.9558 18.992 32.2812 22.1511 32.2812 25.9326C32.2812 30.2723 35.7991 33.7877 40.1364 33.7877C44.4737 33.7877 47.9915 30.2699 47.9915 25.9326C47.9915 22.1511 45.3169 18.992 41.7563 18.2461Z" fill="#222222"/>
<path d="M10.3345 33.6216C13.895 32.8757 16.5696 29.7166 16.5696 25.9327C16.5696 21.5954 13.0542 18.0776 8.7145 18.0776C4.37483 18.0776 0.859375 21.5954 0.859375 25.9327C0.859375 29.7166 3.53396 32.8734 7.09453 33.6216C3.53396 34.3674 0.859375 37.5266 0.859375 41.3081C0.859375 45.6477 4.37721 49.1631 8.7145 49.1631C13.0518 49.1631 16.5696 45.6477 16.5696 41.3081C16.5696 37.5242 13.895 34.3674 10.3345 33.6216Z" fill="#222222"/>
<path d="M25.7083 49.0377C29.9905 48.3426 32.8984 44.3077 32.2033 40.0255C31.5082 35.7433 27.4733 32.8354 23.1911 33.5305C18.9089 34.2256 16.001 38.2604 16.6961 42.5426C17.3912 46.8249 21.4261 49.7328 25.7083 49.0377Z" fill="#222222"/>
</svg>
