<svg width="52" height="50" viewBox="0 0 52 50" fill="none" xmlns="http://www.w3.org/2000/svg">
<path d="M9.24258 16.5464C4.57232 16.5464 0.789062 20.3321 0.789062 24.9998C0.789062 29.0719 3.66739 32.4692 7.49921 33.2744C3.66739 34.0771 0.789062 37.4769 0.789062 41.5464C0.789062 46.2167 4.57232 49.9999 9.24258 49.9999C13.9128 49.9999 17.6961 46.2167 17.6961 41.5464C17.6961 37.4743 14.8178 34.0771 10.986 33.2744C14.8178 32.4718 17.6961 29.0719 17.6961 24.9998C17.6961 20.3321 13.9103 16.5464 9.24258 16.5464Z" fill="#222222"/>
<path d="M27.8921 16.7255C31.724 15.9228 34.6023 12.523 34.6023 8.45346C34.6023 3.7832 30.819 0 26.1488 0C21.4785 0 17.6953 3.7832 17.6953 8.45346C17.6953 12.5256 20.5736 15.9228 24.4055 16.7255C20.5736 17.5282 17.6953 20.9279 17.6953 24.9975C17.6953 29.6677 21.4811 33.451 26.1488 33.451C30.8165 33.451 34.6023 29.6652 34.6023 24.9975C34.6023 20.9279 31.724 17.5282 27.8921 16.7255Z" fill="#222222"/>
<path d="M44.7985 33.272C48.6303 32.4693 51.5086 29.0695 51.5086 24.9974C51.5086 20.3297 47.7253 16.5439 43.0551 16.5439C38.3848 16.5439 34.6016 20.3297 34.6016 24.9974C34.6016 29.0695 37.4799 32.4668 41.3117 33.272C37.4799 34.0747 34.6016 37.4745 34.6016 41.544C34.6016 46.2143 38.3874 49.9975 43.0551 49.9975C47.7228 49.9975 51.5086 46.2143 51.5086 41.544C51.5086 37.4719 48.6303 34.0747 44.7985 33.272Z" fill="#222222"/>
</svg>
