<svg width="34" height="34" viewBox="0 0 34 34" fill="none" xmlns="http://www.w3.org/2000/svg">
<path d="M10.1974 16.7289C14.0294 15.9262 16.9078 12.5262 16.9078 8.45387C16.9078 3.78594 13.1219 0 8.45392 0C3.78599 0 0 3.78594 0 8.45387C0 12.5262 2.87847 15.9236 6.71047 16.7289C2.87847 17.5316 0 20.9316 0 25.0013C0 29.6718 3.78343 33.4552 8.45392 33.4552C13.1244 33.4552 16.9078 29.6718 16.9078 25.0013C16.9078 20.929 14.0294 17.5316 10.1974 16.7289Z" fill="white"/>
<path d="M26.6052 16.7289C30.4372 15.9262 33.3157 12.5262 33.3157 8.45643C33.3157 3.78594 29.5297 0.00255966 24.8618 0.00255966C20.1938 0.00255966 16.4078 3.78594 16.4078 8.45643C16.4078 12.5287 19.2863 15.9262 23.1183 16.7289C19.2863 17.5316 16.4078 20.9315 16.4078 25.0013C16.4078 29.6717 20.1938 33.4552 24.8618 33.4552C29.5297 33.4552 33.3157 29.6692 33.3157 25.0013C33.3157 20.9315 30.4372 17.5316 26.6052 16.7289Z" fill="white"/>
</svg>
