<svg width="51" height="50" viewBox="0 0 51 50" fill="none" xmlns="http://www.w3.org/2000/svg">
<path d="M8.60198 16.907C13.2707 16.907 17.0555 13.1222 17.0555 8.45348C17.0555 3.78473 13.2707 0 8.60198 0C3.93323 0 0.148438 3.78473 0.148438 8.45348C0.148438 13.1222 3.93323 16.907 8.60198 16.907Z" fill="#222222"/>
<path d="M27.2516 16.7255C31.0834 15.9229 33.9618 12.523 33.9618 8.45348C33.9618 3.78321 30.1785 0 25.5082 0C20.838 0 17.0547 3.78321 17.0547 8.45348C17.0547 12.5256 19.933 15.9229 23.7648 16.7255C19.933 17.5282 17.0547 20.928 17.0547 24.9975C17.0547 29.0671 19.933 32.4669 23.7648 33.2722C19.933 34.0748 17.0547 37.4747 17.0547 41.5442C17.0547 46.2145 20.8405 49.9977 25.5082 49.9977C30.1759 49.9977 33.9618 46.2145 33.9618 41.5442C33.9618 37.4721 31.0834 34.0748 27.2516 33.2722C31.0834 32.4695 33.9618 29.0696 33.9618 24.9975C33.9618 20.9254 31.0834 17.5282 27.2516 16.7255Z" fill="#222222"/>
<path d="M42.4145 16.5464C37.7468 16.5464 33.9609 20.3322 33.9609 24.9999C33.9609 29.6676 37.7468 33.4534 42.4145 33.4534C47.0822 33.4534 50.868 29.6676 50.868 24.9999C50.868 20.3322 47.0848 16.5464 42.4145 16.5464Z" fill="#222222"/>
<path d="M8.60198 50.0003C13.2707 50.0003 17.0555 46.2155 17.0555 41.5467C17.0555 36.878 13.2707 33.0933 8.60198 33.0933C3.93323 33.0933 0.148438 36.878 0.148438 41.5467C0.148438 46.2155 3.93323 50.0003 8.60198 50.0003Z" fill="#222222"/>
</svg>
