<svg width="13" height="12" viewBox="0 0 13 12" fill="none" xmlns="http://www.w3.org/2000/svg">
<path d="M0.827197 5.45103C2.09094 4.73062 3.50162 4.12932 4.81968 3.52497C7.08727 2.53509 9.36386 1.56236 11.6634 0.656758C12.1108 0.502463 12.9147 0.351589 12.9936 1.03778C12.9504 2.00911 12.7728 2.97475 12.651 3.94039C12.3419 6.06393 11.9846 8.18019 11.6362 10.2967C11.5162 11.0018 10.6628 11.3667 10.1168 10.9155C8.80459 9.99822 7.48229 9.08979 6.18684 8.15119C5.76248 7.70493 6.15599 7.06406 6.53498 6.74538C7.61576 5.64305 8.76194 4.7065 9.78623 3.54721C10.0625 2.85669 9.24615 3.43863 8.97687 3.61696C7.49727 4.6722 6.0539 5.79187 4.49395 6.71929C3.69712 7.17324 2.76841 6.7853 1.97195 6.532C1.25784 6.22599 0.211379 5.91769 0.827125 5.45112L0.827197 5.45103Z" fill="#F6F1EE"/>
</svg>
