<svg width="13" height="12" viewBox="0 0 13 12" fill="none" xmlns="http://www.w3.org/2000/svg">
<path d="M0.823291 5.4492C2.08703 4.72879 3.49771 4.12749 4.81578 3.52314C7.08336 2.53325 9.35996 1.56053 11.6595 0.654927C12.1069 0.500632 12.9108 0.349758 12.9897 1.03594C12.9465 2.00727 12.7689 2.97292 12.6471 3.93856C12.338 6.0621 11.9807 8.17836 11.6323 10.2949C11.5123 10.9999 10.6589 11.3649 10.1129 10.9137C8.80069 9.99639 7.47839 9.08796 6.18293 8.14936C5.75858 7.7031 6.15209 7.06223 6.53107 6.74355C7.61185 5.64122 8.75803 4.70467 9.78232 3.54537C10.0586 2.85486 9.24224 3.4368 8.97296 3.61513C7.49337 4.67037 6.04999 5.79004 4.49004 6.71746C3.69322 7.17141 2.76451 6.78347 1.96805 6.53017C1.25394 6.22416 0.207473 5.91586 0.823219 5.44929L0.823291 5.4492Z" fill="#222222"/>
</svg>
