<svg width="15" height="9" viewBox="0 0 15 9" fill="none" xmlns="http://www.w3.org/2000/svg">
<path fill-rule="evenodd" clip-rule="evenodd" d="M14.3077 1.29684C14.4088 0.976557 14.3077 0.743623 13.86 0.743623H12.3724C11.997 0.743623 11.8236 0.947441 11.7226 1.16582C11.7226 1.16582 10.9571 3.02929 9.88843 4.23764C9.54182 4.58704 9.38296 4.70351 9.19521 4.70351C9.09412 4.70351 8.96414 4.58704 8.96414 4.26676V1.28228C8.96414 0.903765 8.84861 0.729065 8.53088 0.729065H6.19129C5.96022 0.729065 5.8158 0.903765 5.8158 1.07847C5.8158 1.44243 6.35015 1.52978 6.40792 2.54886V4.76174C6.40792 5.24217 6.32127 5.32952 6.13352 5.32952C5.62805 5.32952 4.40049 3.45148 3.66395 1.3114C3.51953 0.889207 3.37511 0.729065 2.99962 0.729065H1.49766C1.0644 0.729065 0.992188 0.932882 0.992188 1.15126C0.992188 1.54433 1.49766 3.52428 3.34623 6.14479C4.57379 7.93547 6.32127 8.89632 7.89544 8.89632C8.84861 8.89632 8.96414 8.67795 8.96414 8.31399V6.96006C8.96414 6.52331 9.05079 6.45051 9.35408 6.45051C9.5707 6.45051 9.96064 6.56698 10.8416 7.42593C11.8525 8.44501 12.0258 8.91088 12.5891 8.91088H14.0766C14.5098 8.91088 14.712 8.69251 14.5965 8.27031C14.4665 7.84812 13.9755 7.23667 13.3401 6.50875C12.9934 6.10111 12.4735 5.6498 12.3147 5.43143C12.098 5.14026 12.1558 5.02379 12.3147 4.76174C12.3002 4.76174 14.1199 2.17035 14.3077 1.29684Z" fill="#F6F1EE"/>
</svg>
