<svg width="15" height="9" viewBox="0 0 15 9" fill="none" xmlns="http://www.w3.org/2000/svg">
<path fill-rule="evenodd" clip-rule="evenodd" d="M14.3057 1.29507C14.4068 0.974787 14.3057 0.741853 13.858 0.741853H12.3705C11.995 0.741853 11.8217 0.945671 11.7206 1.16405C11.7206 1.16405 10.9552 3.02752 9.88647 4.23587C9.53987 4.58527 9.38101 4.70174 9.19326 4.70174C9.09217 4.70174 8.96219 4.58527 8.96219 4.26499V1.28051C8.96219 0.901995 8.84665 0.727295 8.52893 0.727295H6.18933C5.95826 0.727295 5.81385 0.901995 5.81385 1.0767C5.81385 1.44066 6.3482 1.52801 6.40596 2.54709V4.75997C6.40596 5.2404 6.31931 5.32775 6.13157 5.32775C5.6261 5.32775 4.39853 3.44971 3.66199 1.30963C3.51757 0.887437 3.37316 0.727295 2.99767 0.727295H1.4957C1.06244 0.727295 0.990234 0.931112 0.990234 1.14949C0.990234 1.54256 1.4957 3.52251 3.34427 6.14302C4.57184 7.9337 6.31931 8.89455 7.89349 8.89455C8.84665 8.89455 8.96219 8.67618 8.96219 8.31222V6.95829C8.96219 6.52154 9.04884 6.44874 9.35212 6.44874C9.56875 6.44874 9.95868 6.56521 10.8396 7.42416C11.8506 8.44324 12.0239 8.90911 12.5871 8.90911H14.0746C14.5079 8.90911 14.7101 8.69074 14.5945 8.26854C14.4646 7.84635 13.9735 7.2349 13.3381 6.50698C12.9915 6.09934 12.4716 5.64803 12.3127 5.42966C12.0961 5.13849 12.1539 5.02202 12.3127 4.75997C12.2983 4.75997 14.118 2.16858 14.3057 1.29507Z" fill="#222222"/>
</svg>
