<svg width="12" height="12" viewBox="0 0 12 12" fill="none" xmlns="http://www.w3.org/2000/svg">
<path d="M11.5983 8.64706C11.5267 8.51838 11.3358 8.44118 11.0495 8.28671C10.7631 8.13231 9.35506 7.38611 9.09249 7.28306C8.83003 7.18016 8.63903 7.12874 8.44814 7.43746C8.25725 7.74625 7.7084 8.44118 7.54133 8.64706C7.37426 8.85288 7.2072 8.87872 6.92092 8.72425C6.63453 8.56986 5.71173 8.24413 4.61782 7.19312C3.76644 6.3751 3.19168 5.36495 3.02462 5.05611C2.85756 4.74727 3.00681 4.58037 3.15018 4.42654C3.27903 4.28828 3.43659 4.06615 3.57977 3.88607C3.72296 3.70599 3.77068 3.57723 3.86615 3.37149C3.96161 3.16552 3.91389 2.98544 3.84228 2.83102C3.77068 2.6766 3.19794 1.15816 2.95929 0.540474C2.7268 -0.0610559 2.49071 0.0204311 2.31493 0.0109282C2.14807 0.00190053 1.95694 0 1.76604 0C1.57513 0 1.26484 0.0772106 1.00234 0.386053C0.739836 0.694896 0 1.44123 0 2.95954C0 4.47798 1.02619 5.94486 1.1694 6.15072C1.31258 6.35669 3.18883 9.47251 6.06175 10.8087C6.74502 11.1266 7.27843 11.3164 7.6944 11.4586C8.38043 11.6934 9.00482 11.6603 9.4982 11.5808C10.0485 11.4923 11.1926 10.8346 11.4313 10.114C11.6699 9.39333 11.6699 8.77568 11.5983 8.64706Z" fill="#F6F1EE"/>
</svg>
