<svg width="400" height="32" viewBox="0 0 400 32" fill="none" xmlns="http://www.w3.org/2000/svg">
<path d="M38.1733 1.26897L39.0251 1.63081L39.9654 0.57931H38.1733V1.26897ZM22.7443 18.5241L21.8925 18.1623L21.7437 18.3287V18.5241H22.7443ZM22.7443 30.731V31.4207H23.7449V30.731H22.7443ZM17.221 30.731H16.2205V31.4207H17.221V30.731ZM17.221 18.5241H18.2216V18.3287L18.0728 18.1623L17.221 18.5241ZM1.79202 1.26897V0.57931H0L0.940212 1.63081L1.79202 1.26897ZM8.21578 1.26897L9.07686 0.91771L8.78629 0.57931H8.21578V1.26897ZM19.9226 15.131L19.0492 15.4675L19.3356 15.8207H19.9226V15.131ZM20.0427 15.131V15.8207H20.6297L20.9161 15.4675L20.0427 15.131ZM26.5265 7.35173L25.668 6.99749L25.6659 6.99995L26.5265 7.35173ZM31.8096 1.26897V0.57931H31.2423L30.9511 0.914733L31.8096 1.26897ZM37.3215 0.907126L21.8925 18.1623L23.5961 18.886L39.0251 1.63081L37.3215 0.907126ZM21.7437 18.5241V30.731H23.7449V18.5241H21.7437ZM22.7443 30.0414H17.221V31.4207H22.7443V30.0414ZM18.2216 30.731V18.5241H16.2205V30.731H18.2216ZM18.0728 18.1623L2.64383 0.907126L0.940212 1.63081L16.3692 18.886L18.0728 18.1623ZM1.79202 1.95862H8.21578V0.57931H1.79202V1.95862ZM7.35469 1.62022L12.5777 7.70297L14.2999 7.00047L9.07686 0.91771L7.35469 1.62022ZM12.5777 7.70297C14.6139 10.0695 16.7714 12.658 19.0492 15.4675L20.796 14.7946C18.5112 11.9765 16.3461 9.37873 14.2999 7.00047L12.5777 7.70297ZM19.9226 15.8207H20.0427V14.4414H19.9226V15.8207ZM20.9161 15.4675C23.1939 12.658 25.3509 10.0701 27.3871 7.70352L25.6659 6.99995C23.6197 9.37821 21.4541 11.9765 19.1693 14.7946L20.9161 15.4675ZM27.385 7.70593L32.6681 1.6232L30.9511 0.914733L25.668 6.99749L27.385 7.70593ZM31.8096 1.95862H38.1733V0.57931H31.8096V1.95862ZM73.7305 30.731L72.7901 30.9665L73.0294 31.4207H73.7305V30.731ZM69.1078 21.9586L70.0483 21.7232L69.8089 21.269H69.1078V21.9586ZM50.2568 21.9586V21.269H49.5588L49.3177 21.7205L50.2568 21.9586ZM45.574 30.731V31.4207H46.272L46.5131 30.9692L45.574 30.731ZM39.6906 30.731L38.755 30.4865L38.241 31.4207H39.6906V30.731ZM55.9001 1.26897V0.57931H55.2094L54.9645 1.02443L55.9001 1.26897ZM63.4045 1.26897L64.3396 1.02364L64.0943 0.57931H63.4045V1.26897ZM79.674 30.731V31.4207H81.1254L80.6091 30.4857L79.674 30.731ZM51.9978 18.6069L51.0591 18.368L50.5618 19.2966H51.9978V18.6069ZM67.3068 18.6069V19.2966H68.7222L68.25 18.3768L67.3068 18.6069ZM65.9259 15.9172L66.8692 15.6872L66.8671 15.6831L65.9259 15.9172ZM59.7423 3.91724L60.6876 3.69109L60.4541 3.22759H59.7423V3.91724ZM59.6223 3.91724V3.22759H58.9104L58.677 3.69109L59.6223 3.91724ZM53.4386 15.9172L54.3773 16.1561L54.3798 16.1514L53.4386 15.9172ZM74.671 30.4956L70.0483 21.7232L68.1674 22.1941L72.7901 30.9665L74.671 30.4956ZM69.1078 21.269H50.2568V22.6483H69.1078V21.269ZM49.3177 21.7205L44.635 30.4929L46.5131 30.9692L51.1958 22.1968L49.3177 21.7205ZM45.574 30.0414H39.6906V31.4207H45.574V30.0414ZM40.6261 30.9756L56.8356 1.5135L54.9645 1.02443L38.755 30.4865L40.6261 30.9756ZM55.9001 1.95862H63.4045V0.57931H55.9001V1.95862ZM62.4693 1.51429L78.7388 30.9763L80.6091 30.4857L64.3396 1.02364L62.4693 1.51429ZM79.674 30.0414H73.7305V31.4207H79.674V30.0414ZM51.9978 19.2966H67.3068V17.9172H51.9978V19.2966ZM68.25 18.3768L66.8692 15.6872L64.9827 16.1473L66.3635 18.837L68.25 18.3768ZM66.8671 15.6831C64.4266 11.0227 62.3669 7.02553 60.6876 3.69109L58.7971 4.14339C60.4799 7.48483 62.5425 11.4877 64.9848 16.1514L66.8671 15.6831ZM59.7423 3.22759H59.6223V4.6069H59.7423V3.22759ZM58.677 3.69109C56.9978 7.02553 54.938 11.0227 52.4975 15.6831L54.3798 16.1514C56.8221 11.4877 58.8848 7.48483 60.5675 4.14339L58.677 3.69109ZM52.5 15.6783L51.0591 18.368L52.9364 18.8458L54.3773 16.1561L52.5 15.6783ZM124.417 1.26897H125.417V0.57931H124.417V1.26897ZM124.417 30.731V31.4207H125.417V30.731H124.417ZM116.252 30.731L115.375 31.0636L115.661 31.4207H116.252V30.731ZM106.106 18.0276L106.983 17.695L106.98 17.6915L106.106 18.0276ZM95.7798 4.82759L96.6686 4.51086L96.3889 4.13793H95.7798V4.82759ZM95.6597 4.82759V4.13793H94.6414L94.6594 4.83968L95.6597 4.82759ZM95.8399 30.731V31.4207H96.8404V30.731H95.8399ZM90.4367 30.731H89.4361V31.4207H90.4367V30.731ZM90.4367 1.26897V0.57931H89.4361V1.26897H90.4367ZM98.5414 1.26897L99.4167 0.934874L99.1311 0.57931H98.5414V1.26897ZM108.748 13.9724L109.624 13.6406L109.623 13.6383L108.748 13.9724ZM119.074 27.1724L118.188 27.4935L118.469 27.8621H119.074V27.1724ZM119.194 27.1724V27.8621H120.212L120.194 27.1603L119.194 27.1724ZM119.014 1.26897V0.57931H118.013V1.26897H119.014ZM123.416 1.26897V30.731H125.417V1.26897H123.416ZM124.417 30.0414H116.252V31.4207H124.417V30.0414ZM117.129 30.3985L106.983 17.695L105.23 18.3601L115.375 31.0636L117.129 30.3985ZM106.98 17.6915C103.141 12.9519 99.7047 8.55842 96.6686 4.51086L94.891 5.14432C97.9385 9.2071 101.386 13.6137 105.233 18.3637L106.98 17.6915ZM95.7798 4.13793H95.6597V5.51724H95.7798V4.13793ZM94.6594 4.83968C94.7793 9.5529 94.8393 14.2523 94.8393 18.9379H96.8404C96.8404 14.2442 96.7804 9.53676 96.6602 4.81549L94.6594 4.83968ZM94.8393 18.9379V30.731H96.8404V18.9379H94.8393ZM95.8399 30.0414H90.4367V31.4207H95.8399V30.0414ZM91.4373 30.731V1.26897H89.4361V30.731H91.4373ZM90.4367 1.95862H98.5414V0.57931H90.4367V1.95862ZM97.6661 1.60306L107.872 14.3065L109.623 13.6383L99.4167 0.934874L97.6661 1.60306ZM107.87 14.3043C111.91 19.3778 115.349 23.774 118.188 27.4935L119.959 26.8514C117.113 23.1226 113.668 18.7188 109.624 13.6406L107.87 14.3043ZM119.074 27.8621H119.194V26.4828H119.074V27.8621ZM120.194 27.1603C120.074 22.4471 120.014 17.7477 120.014 13.0621H118.013C118.013 17.7558 118.073 22.4632 118.193 27.1845L120.194 27.1603ZM120.014 13.0621V1.26897H118.013V13.0621H120.014ZM119.014 1.95862H124.417V0.57931H119.014V1.95862ZM188.495 10.3724V11.0621H189.496V10.3724H188.495ZM182.912 10.3724H181.911V11.0621H182.912V10.3724ZM166.883 5.2L166.262 4.65866L166.252 4.6643L166.883 5.2ZM186.814 17.3241L186.072 17.7868L186.081 17.793L186.089 17.7991L186.814 17.3241ZM188.735 19.5172L187.804 19.77L187.808 19.7768L188.735 19.5172ZM185.313 28.9517L184.681 28.4169L184.676 28.42L185.313 28.9517ZM158.238 20.9655V20.2759H157.237V20.9655H158.238ZM163.941 20.9655H164.941V20.2759H163.941V20.9655ZM166.642 26.3035L165.951 26.8021L165.96 26.8077L166.642 26.3035ZM181.291 26.6759L180.673 26.1335L180.664 26.1386L181.291 26.6759ZM173.366 17.531L173.614 16.8628L173.609 16.862L173.366 17.531ZM165.982 15.9586L165.61 16.599L165.621 16.6018L165.982 15.9586ZM163.04 14.8414L162.4 15.3712L162.41 15.377L162.42 15.3827L163.04 14.8414ZM160.939 13.3931L160.162 13.827L160.169 13.8335L160.177 13.8397L160.939 13.3931ZM159.438 11.4069L158.468 11.5741L158.473 11.5886L158.479 11.6028L159.438 11.4069ZM162.86 2.96552L163.506 3.49264L163.513 3.48857L162.86 2.96552ZM173.186 1.37931C178.155 1.37931 181.695 2.16628 183.992 3.61848C186.271 5.06039 187.495 7.2671 187.495 10.3724H189.496C189.496 7.02255 188.168 4.38789 185.344 2.60221C182.538 0.826824 178.423 0 173.186 0V1.37931ZM188.495 9.68276H182.912V11.0621H188.495V9.68276ZM183.913 10.3724C183.913 8.1191 183.05 6.30466 181.155 5.0623C179.269 3.82612 176.53 3.26897 173.126 3.26897V4.64828C176.246 4.64828 178.4 5.16009 179.776 6.06184C181.142 6.95741 181.911 8.34986 181.911 10.3724H183.913ZM173.126 3.26897C170.341 3.26897 168.014 3.70531 166.262 4.65866L167.503 5.7413C168.793 5.03947 170.629 4.64828 173.126 4.64828V3.26897ZM166.252 4.6643C164.519 5.6331 163.661 6.95375 163.661 8.55173H165.662C165.662 7.33593 166.284 6.42208 167.513 5.73569L166.252 4.6643ZM163.661 8.55173C163.661 10.2013 164.54 11.5156 166.392 12.3555L167.493 11.2032C166.303 10.6637 165.662 9.82628 165.662 8.55173H163.661ZM166.392 12.3555C168.065 13.1141 170.891 13.8119 174.744 14.4759L175.229 13.1379C171.399 12.4777 168.862 11.8239 167.493 11.2032L166.392 12.3555ZM174.744 14.4759C176.658 14.8057 178.202 15.0925 179.383 15.3364L179.957 14.0153C178.736 13.7627 177.159 13.4701 175.229 13.1379L174.744 14.4759ZM179.383 15.3364C180.522 15.5719 181.771 15.9156 183.135 16.3721L184.01 15.1314C182.572 14.6499 181.22 14.2763 179.957 14.0153L179.383 15.3364ZM183.135 16.3721C184.461 16.8159 185.423 17.2926 186.072 17.7868L187.556 16.8615C186.684 16.197 185.485 15.6255 184.01 15.1314L183.135 16.3721ZM186.089 17.7991C186.739 18.2711 187.318 18.9197 187.804 19.77L189.666 19.2645C189.112 18.2941 188.41 17.4806 187.54 16.8492L186.089 17.7991ZM187.808 19.7768C188.27 20.5597 188.515 21.5024 188.515 22.6207H190.516C190.516 21.3666 190.241 20.2403 189.662 19.2577L187.808 19.7768ZM188.515 22.6207C188.515 25.0767 187.234 26.9847 184.681 28.4169L185.945 29.4865C188.997 27.7739 190.516 25.4612 190.516 22.6207H188.515ZM184.676 28.42C182.142 29.8634 178.687 30.6207 174.207 30.6207V32C179.012 32 182.962 31.1849 185.951 29.4835L184.676 28.42ZM174.207 30.6207C169.33 30.6207 165.679 29.7686 163.115 28.1531L161.765 29.171C164.804 31.0866 168.998 32 174.207 32V30.6207ZM163.115 28.1531C160.576 26.5532 159.238 24.1962 159.238 20.9655H157.237C157.237 24.4659 158.7 27.2399 161.765 29.171L163.115 28.1531ZM158.238 21.6552H163.941V20.2759H158.238V21.6552ZM162.94 20.9655C162.94 23.4524 163.887 25.4423 165.951 26.8021L167.334 25.8048C165.796 24.7922 164.941 23.2235 164.941 20.9655H162.94ZM165.96 26.8077C168 28.1206 170.818 28.731 174.267 28.731V27.3517C171.152 27.3517 168.887 26.8036 167.325 25.7992L165.96 26.8077ZM174.267 28.731C177.438 28.731 180.035 28.2576 181.918 27.2131L180.664 26.1386C179.265 26.9148 177.179 27.3517 174.267 27.3517V28.731ZM181.909 27.2181C183.864 26.1597 184.813 24.6647 184.813 22.8276H182.812C182.812 24.3008 182.081 25.3712 180.673 26.1335L181.909 27.2181ZM184.813 22.8276C184.813 21.1348 183.945 19.7935 182.065 18.9755L180.997 20.1417C182.16 20.6479 182.812 21.4859 182.812 22.8276H184.813ZM182.065 18.9755C180.4 18.2505 177.543 17.5537 173.614 16.8628L173.119 18.1993C177.035 18.8877 179.62 19.5426 180.997 20.1417L182.065 18.9755ZM173.609 16.862C172.018 16.5877 170.716 16.3428 169.698 16.127L169.11 17.4454C170.174 17.671 171.513 17.9226 173.123 18.2001L173.609 16.862ZM169.698 16.127C168.685 15.9121 167.567 15.6419 166.343 15.3154L165.621 16.6018C166.879 16.9375 168.042 17.219 169.11 17.4454L169.698 16.127ZM166.353 15.3183C165.215 15.0042 164.325 14.6617 163.661 14.3001L162.42 15.3827C163.276 15.8486 164.347 16.251 165.61 16.599L166.353 15.3183ZM163.681 14.3116C163.009 13.9259 162.349 13.4717 161.702 12.9465L160.177 13.8397C160.89 14.418 161.631 14.9293 162.4 15.3712L163.681 14.3116ZM161.717 12.9592C161.122 12.4532 160.682 11.8728 160.398 11.211L158.479 11.6028C158.835 12.4307 159.395 13.1744 160.162 13.827L161.717 12.9592ZM160.409 11.2397C160.153 10.5321 160.019 9.72062 160.019 8.8H158.017C158.017 9.81042 158.164 10.7369 158.468 11.5741L160.409 11.2397ZM160.019 8.8C160.019 6.59411 161.179 4.8455 163.506 3.49264L162.215 2.43842C159.418 4.06486 158.017 6.20588 158.017 8.8H160.019ZM163.513 3.48857C165.846 2.10609 169.034 1.37931 173.186 1.37931V0C168.693 0 164.998 0.790463 162.208 2.44247L163.513 3.48857ZM231.499 1.26897H232.5V0.57931H231.499V1.26897ZM231.499 4.66207V5.35172H232.5V4.66207H231.499ZM216.911 4.66207V3.97241H215.91V4.66207H216.911ZM216.911 30.731V31.4207H217.911V30.731H216.911ZM211.328 30.731H210.327V31.4207H211.328V30.731ZM211.328 4.66207H212.328V3.97241H211.328V4.66207ZM196.739 4.66207H195.738V5.35172H196.739V4.66207ZM196.739 1.26897V0.57931H195.738V1.26897H196.739ZM230.499 1.26897V4.66207H232.5V1.26897H230.499ZM231.499 3.97241H216.911V5.35172H231.499V3.97241ZM215.91 4.66207V30.731H217.911V4.66207H215.91ZM216.911 30.0414H211.328V31.4207H216.911V30.0414ZM212.328 30.731V4.66207H210.327V30.731H212.328ZM211.328 3.97241H196.739V5.35172H211.328V3.97241ZM197.74 4.66207V1.26897H195.738V4.66207H197.74ZM196.739 1.95862H231.499V0.57931H196.739V1.95862ZM268.425 1.26897V0.57931H267.424V1.26897H268.425ZM274.008 1.26897H275.009V0.57931H274.008V1.26897ZM246.332 28.3724L245.6 28.8422L245.605 28.8459L245.61 28.8495L246.332 28.3724ZM242.31 1.26897V0.57931H241.309V1.26897H242.31ZM247.833 1.26897H248.834V0.57931H247.833V1.26897ZM250.535 25.7655L249.784 26.2219L249.791 26.2269L250.535 25.7655ZM265.723 25.7655L264.974 25.3092L264.973 25.3099L265.723 25.7655ZM268.425 1.95862H274.008V0.57931H268.425V1.95862ZM273.008 1.26897V19.6828H275.009V1.26897H273.008ZM273.008 19.6828C273.008 23.3542 271.687 26.0415 269.198 27.8575L270.653 28.8046C273.608 26.6481 275.009 23.5699 275.009 19.6828H273.008ZM269.198 27.8575C266.717 29.6683 263.092 30.6207 258.159 30.6207V32C263.473 32 267.692 30.9661 270.653 28.8046L269.198 27.8575ZM258.159 30.6207C253.18 30.6207 249.534 29.6795 247.056 27.8954L245.61 28.8495C248.574 30.9826 252.813 32 258.159 32V30.6207ZM247.065 27.9026C244.614 26.0877 243.31 23.3858 243.31 19.6828H241.309C241.309 23.5935 242.687 26.6848 245.6 28.8422L247.065 27.9026ZM243.31 19.6828V1.26897H241.309V19.6828H243.31ZM242.31 1.95862H247.833V0.57931H242.31V1.95862ZM246.832 1.26897V19.6H248.834V1.26897H246.832ZM246.832 19.6C246.832 22.3985 247.763 24.6433 249.784 26.2219L251.285 25.3092C249.704 24.074 248.834 22.2084 248.834 19.6H246.832ZM249.791 26.2269C251.822 27.7828 254.661 28.5241 258.159 28.5241V27.1448C255.094 27.1448 252.849 26.5069 251.279 25.3041L249.791 26.2269ZM258.159 28.5241C261.657 28.5241 264.481 27.7828 266.475 26.2211L264.973 25.3099C263.444 26.5068 261.226 27.1448 258.159 27.1448V28.5241ZM266.474 26.2218C268.495 24.6432 269.426 22.3985 269.426 19.6H267.424C267.424 22.2084 266.555 24.074 264.974 25.3092L266.474 26.2218ZM269.426 19.6V1.26897H267.424V19.6H269.426ZM291.003 30.731H290.003V31.4207H291.003V30.731ZM291.003 1.26897V0.57931H290.003V1.26897H291.003ZM320.42 5.11724L319.724 5.61259L319.728 5.61517L320.42 5.11724ZM320.42 26.9241L321.113 27.4221L321.117 27.4195L320.42 26.9241ZM296.526 4.66207V3.97241H295.526V4.66207H296.526ZM296.526 27.3379H295.526V28.0276H296.526V27.3379ZM292.004 30.731V1.26897H290.003V30.731H292.004ZM291.003 1.95862H304.031V0.57931H291.003V1.95862ZM304.031 1.95862C310.942 1.95862 316.123 3.20792 319.724 5.61259L321.117 4.6219C317.033 1.89554 311.288 0.57931 304.031 0.57931V1.95862ZM319.728 5.61517C323.321 7.98841 325.183 11.4141 325.183 16H327.184C327.184 11.1514 325.204 7.32193 321.113 4.61932L319.728 5.61517ZM325.183 16C325.183 20.5854 323.321 24.027 319.724 26.4288L321.117 27.4195C325.204 24.6902 327.184 20.849 327.184 16H325.183ZM319.728 26.4262C316.127 28.8048 310.945 30.0414 304.031 30.0414V31.4207C311.285 31.4207 317.029 30.1193 321.113 27.4221L319.728 26.4262ZM304.031 30.0414H291.003V31.4207H304.031V30.0414ZM303.971 3.97241H296.526V5.35172H303.971V3.97241ZM295.526 4.66207V27.3379H297.527V4.66207H295.526ZM296.526 28.0276H303.971V26.6483H296.526V28.0276ZM303.971 28.0276C309.465 28.0276 313.819 27.029 316.865 24.929L315.451 23.9537C312.894 25.7159 309.123 26.6483 303.971 26.6483V28.0276ZM316.865 24.929C319.913 22.8282 321.361 19.813 321.361 16H319.36C319.36 19.5801 318.006 22.1925 315.451 23.9537L316.865 24.929ZM321.361 16C321.361 12.187 319.913 9.17179 316.865 7.07096L315.451 8.04628C318.006 9.80752 319.36 12.4199 319.36 16H321.361ZM316.865 7.07096C313.819 4.97106 309.465 3.97241 303.971 3.97241V5.35172C309.123 5.35172 312.894 6.28411 315.451 8.04628L316.865 7.07096ZM345.914 1.26897H346.915V0.57931H345.914V1.26897ZM345.914 30.731V31.4207H346.915V30.731H345.914ZM340.391 30.731H339.391V31.4207H340.391V30.731ZM340.391 1.26897V0.57931H339.391V1.26897H340.391ZM344.914 1.26897V30.731H346.915V1.26897H344.914ZM345.914 30.0414H340.391V31.4207H345.914V30.0414ZM341.392 30.731V1.26897H339.391V30.731H341.392ZM340.391 1.95862H345.914V0.57931H340.391V1.95862ZM389.514 24.6483L388.73 24.2192L388.729 24.22L389.514 24.6483ZM389.514 7.3931L388.725 7.81793L388.73 7.82179L388.734 7.82566L389.514 7.3931ZM366.194 5.28025C369.462 2.69187 373.894 1.37931 379.608 1.37931V0C373.395 0 368.381 1.44606 364.685 4.37492L366.194 5.28025ZM379.608 1.37931C385.322 1.37931 389.754 2.69187 393.022 5.28025L394.531 4.37492C390.835 1.44606 385.821 0 379.608 0V1.37931ZM393.022 5.28025C396.305 7.88117 397.999 11.4285 397.999 16H400C400 11.1922 398.212 7.29124 394.531 4.37492L393.022 5.28025ZM397.999 16C397.999 20.5715 396.305 24.1188 393.022 26.7197L394.531 27.6251C398.212 24.7088 400 20.8078 400 16H397.999ZM393.022 26.7197C389.754 29.3081 385.322 30.6207 379.608 30.6207V32C385.821 32 390.835 30.5539 394.531 27.6251L393.022 26.7197ZM379.608 30.6207C373.894 30.6207 369.462 29.3081 366.194 26.7197L364.685 27.6251C368.381 30.5539 373.395 32 379.608 32V30.6207ZM366.194 26.7197C362.911 24.1188 361.217 20.5715 361.217 16H359.216C359.216 20.8078 361.004 24.7088 364.685 27.6251L366.194 26.7197ZM361.217 16C361.217 11.4285 362.911 7.88117 366.194 5.28025L364.685 4.37492C361.004 7.29124 359.216 11.1922 359.216 16H361.217ZM379.608 3.47586C375.124 3.47586 371.503 4.62154 368.858 6.92348L370.427 7.78C372.664 5.83364 375.687 4.85517 379.608 4.85517V3.47586ZM368.858 6.92348C366.235 9.20552 364.98 12.2564 364.98 16H366.981C366.981 12.4608 368.166 9.74621 370.427 7.78L368.858 6.92348ZM364.98 16C364.98 19.7436 366.235 22.7945 368.858 25.0766L370.427 24.22C368.166 22.2538 366.981 19.5392 366.981 16H364.98ZM368.858 25.0766C371.503 27.3785 375.124 28.5241 379.608 28.5241V27.1448C375.687 27.1448 372.664 26.1663 370.427 24.22L368.858 25.0766ZM379.608 28.5241C384.056 28.5241 387.655 27.3767 390.298 25.0766L388.729 24.22C386.49 26.1681 383.485 27.1448 379.608 27.1448V28.5241ZM390.297 25.0774C392.958 22.77 394.237 19.7203 394.237 16H392.235C392.235 19.5072 391.033 22.2231 388.73 24.2192L390.297 25.0774ZM394.237 16C394.237 12.2802 392.959 9.24207 390.293 6.96058L388.734 7.82566C391.032 9.79242 392.235 12.4922 392.235 16H394.237ZM390.302 6.96825C387.66 4.63988 384.061 3.47586 379.608 3.47586V4.85517C383.48 4.85517 386.485 5.84288 388.725 7.81793L390.302 6.96825Z" fill="#222222"/>
</svg>
