<?xml version="1.0" standalone="no"?>
<!DOCTYPE svg PUBLIC "-//W3C//DTD SVG 20010904//EN"
 "http://www.w3.org/TR/2001/REC-SVG-20010904/DTD/svg10.dtd">
<svg version="1.0" xmlns="http://www.w3.org/2000/svg"
 width="2640.000000pt" height="2640.000000pt" viewBox="0 0 2640.000000 2640.000000"
 preserveAspectRatio="xMidYMid meet">
<metadata>
Created by potrace 1.14, written by Peter Selinger 2001-2017
</metadata>
<g transform="translate(0.000000,2640.000000) scale(0.100000,-0.100000)"
fill="#000000" stroke="none">
<path d="M0 15404 l0 -1797 602 -843 603 -844 1795 2 1795 3 0 835 0 835
-1197 3 -1198 2 0 1198 0 1197 -603 603 -602 602 -598 0 -597 0 0 -1796z"/>
<path d="M6202 16597 l-602 -602 -2 -2640 -3 -2640 -2195 -2 -2195 -3 -3 -755
-2 -755 2797 0 2798 0 603 603 602 602 0 3398 0 3397 -598 0 -597 0 -603 -603z"/>
<path d="M9803 16628 l-603 -571 0 -3429 0 -3428 1200 0 1200 0 0 1360 0 1360
1198 2 1197 3 0 835 0 835 -1197 3 -1198 2 0 1800 0 1800 -597 0 -598 0 -602
-572z"/>
<path d="M12400 16360 l0 -840 1200 0 1200 0 0 -3160 0 -3160 1200 0 1200 0 0
3397 0 3398 -602 602 -603 603 -1797 0 -1798 0 0 -840z"/>
<path d="M18400 13200 l0 -4000 598 0 597 0 603 603 602 602 0 1623 0 1624
938 -944 c515 -519 1051 -1059 1191 -1201 140 -141 258 -257 263 -257 4 0 8
528 8 1172 l0 1173 -1802 1802 -1803 1803 -597 0 -598 0 0 -4000z"/>
<path d="M24000 13802 l0 -3397 603 -603 602 -602 598 0 597 0 0 3398 0 3397
-603 603 -602 602 -598 0 -597 0 0 -3398z"/>
</g>
</svg>
