<svg width="88" height="95" viewBox="0 0 88 95" fill="none" xmlns="http://www.w3.org/2000/svg">
<path d="M63.8182 42.77C63.8182 36.33 66.3682 33.77 72.8182 33.77C66.3782 33.77 63.8182 31.22 63.8182 24.77C63.8182 31.22 61.2682 33.77 54.8182 33.77C61.2682 33.78 63.8182 36.33 63.8182 42.77ZM69.4282 46.22C69.4282 50.48 67.7382 52.22 63.4282 52.22C67.6882 52.22 69.4282 53.91 69.4282 58.17C69.4282 53.91 71.1182 52.22 75.4282 52.22C71.1182 52.17 69.4282 50.5 69.4282 46.22ZM47.0982 29.38C47.0982 26.33 48.3082 25.12 51.3582 25.12C48.3082 25.12 47.0982 23.91 47.0982 20.86C47.0982 23.91 45.8882 25.12 42.8382 25.12C45.8882 25.12 47.0982 26.33 47.0982 29.38ZM58.9582 73.44C52.0088 70.8328 45.7561 66.6543 40.6888 61.2308C35.6214 55.8074 31.8765 49.2858 29.7465 42.1756C27.6165 35.0653 27.1592 27.5589 28.4102 20.2427C29.6612 12.9265 32.5867 5.99854 36.9582 0C29.4141 1.80289 22.4173 5.40162 16.5631 10.49C10.7089 15.5783 6.17056 22.0056 3.33437 29.225C0.498174 36.4443 -0.551955 44.242 0.273345 51.9545C1.09865 59.6669 3.77494 67.0658 8.0745 73.5216C12.3741 79.9774 18.1696 85.2989 24.9679 89.0333C31.7662 92.7677 39.3661 94.8045 47.1208 94.9702C54.8756 95.136 62.5555 93.4259 69.5073 89.9855C76.459 86.5451 82.4767 81.4761 87.0482 75.21C77.719 77.4482 67.9326 76.8315 58.9582 73.44Z" fill="black"/>
</svg>
