<svg width="10" height="11" viewBox="0 0 10 11"  xmlns="http://www.w3.org/2000/svg">
<path d="M7.33136 4.91337C7.33136 4.17355 7.62431 3.87946 8.36527 3.87946C7.62545 3.87946 7.33136 3.58652 7.33136 2.84555C7.33136 3.58652 7.03842 3.87946 6.29745 3.87946C7.03842 3.88061 7.33136 4.17355 7.33136 4.91337ZM7.97583 5.3097C7.97583 5.79909 7.78169 5.99898 7.28656 5.99898C7.77595 5.99898 7.97583 6.19312 7.97583 6.6825C7.97583 6.19312 8.16998 5.99898 8.66511 5.99898C8.16998 5.99323 7.97583 5.80138 7.97583 5.3097ZM5.41059 3.37514C5.41059 3.02476 5.54959 2.88576 5.89997 2.88576C5.54959 2.88576 5.41059 2.74675 5.41059 2.39637C5.41059 2.74675 5.27159 2.88576 4.9212 2.88576C5.27159 2.88576 5.41059 3.02476 5.41059 3.37514ZM6.77305 8.43671C5.97471 8.13719 5.25642 7.65717 4.67428 7.03413C4.09215 6.41109 3.66193 5.6619 3.41724 4.84508C3.17256 4.02827 3.12002 3.16594 3.26373 2.32546C3.40745 1.48498 3.74353 0.689105 4.24572 0C3.37906 0.207114 2.57528 0.620533 1.90275 1.20508C1.23022 1.78962 0.708868 2.52798 0.383049 3.35733C0.0572297 4.18668 -0.063408 5.08247 0.0314016 5.96847C0.126211 6.85447 0.433661 7.70445 0.927589 8.44608C1.42152 9.18771 2.0873 9.79904 2.86829 10.228C3.64927 10.6571 4.52234 10.891 5.41319 10.9101C6.30404 10.9291 7.18631 10.7327 7.98492 10.3374C8.78352 9.9422 9.47483 9.35989 10 8.64004C8.92828 8.89716 7.80402 8.82632 6.77305 8.43671Z" />
</svg>
