<svg width="40" height="40" viewBox="0 0 40 40" fill="none" xmlns="http://www.w3.org/2000/svg">
<rect width="40" height="40" rx="20" fill="black"/>
<path fill-rule="evenodd" clip-rule="evenodd" d="M24.9758 14H15.026C14.7539 14 14.4929 14.1081 14.3005 14.3005C14.1081 14.4929 14 14.7539 14 15.026V24.974C14 25.2461 14.1081 25.5071 14.3005 25.6995C14.4929 25.8919 14.7539 26 15.026 26H24.9758C25.2476 25.9995 25.5081 25.8912 25.7001 25.6989C25.8922 25.5065 26 25.2458 26 24.974V15.026C26 14.7542 25.8922 14.4935 25.7001 14.3011C25.5081 14.1088 25.2476 14.0005 24.9758 14ZM25.2038 21.7178C25.2032 22.6416 24.8357 23.5272 24.1822 24.1802C23.5288 24.8331 22.6428 25.1998 21.719 25.1996H18.2888C17.3652 25.1996 16.4794 24.8328 15.8263 24.1798C15.1731 23.5268 14.806 22.6411 14.8058 21.7175V18.2804C14.8058 17.823 14.8958 17.3701 15.0709 16.9476C15.2459 16.525 15.5025 16.1411 15.8259 15.8177C16.1493 15.4943 16.5333 15.2378 16.9559 15.0628C17.3785 14.8879 17.8314 14.7979 18.2888 14.798H21.7265C22.6502 14.7982 23.5361 15.165 24.1895 15.818C24.8429 16.471 25.2103 17.3567 25.211 18.2804L25.2032 21.7175L25.2038 21.7178Z" fill="white"/>
</svg>
