<svg width="537" height="75" viewBox="0 0 537 75" fill="none" xmlns="http://www.w3.org/2000/svg">
<path d="M27.0742 73V42.873L0.853516 1.41797H17.7969L34.6426 29.7383L51.1465 1.41797H67.7969L41.4785 42.9707V73H27.0742Z" fill="white"/>
<path d="M121.826 73H106.104L99.8535 56.7402H71.2402L65.332 73H50L77.8809 1.41797H93.1641L121.826 73ZM95.2148 44.6797L85.3516 18.1172L75.6836 44.6797H95.2148Z" fill="white"/>
<path d="M130.422 73V1.41797H144.484L173.781 49.2207V1.41797H187.209V73H172.707L143.85 26.3203V73H130.422Z" fill="white"/>
<path d="M199.613 49.709L213.676 48.3418C214.522 53.0618 216.231 56.5286 218.803 58.7422C221.407 60.9557 224.906 62.0625 229.301 62.0625C233.956 62.0625 237.455 61.0859 239.799 59.1328C242.175 57.1471 243.363 54.8359 243.363 52.1992C243.363 50.5065 242.859 49.0742 241.85 47.9023C240.873 46.6979 239.148 45.6562 236.674 44.7773C234.981 44.1914 231.124 43.1497 225.102 41.6523C217.354 39.7318 211.918 37.3717 208.793 34.5723C204.398 30.6335 202.201 25.832 202.201 20.168C202.201 16.5221 203.227 13.1204 205.277 9.96289C207.361 6.77279 210.339 4.34766 214.213 2.6875C218.119 1.02734 222.823 0.197266 228.324 0.197266C237.309 0.197266 244.063 2.16667 248.588 6.10547C253.145 10.0443 255.538 15.3014 255.766 21.877L241.312 22.5117C240.694 18.8333 239.359 16.1966 237.309 14.6016C235.29 12.974 232.247 12.1602 228.178 12.1602C223.979 12.1602 220.691 13.0228 218.314 14.748C216.785 15.8548 216.02 17.3359 216.02 19.1914C216.02 20.8841 216.736 22.3327 218.168 23.5371C219.991 25.0671 224.418 26.6621 231.449 28.3223C238.48 29.9824 243.673 31.7077 247.025 33.498C250.411 35.2559 253.048 37.681 254.936 40.7734C256.856 43.8333 257.816 47.6257 257.816 52.1504C257.816 56.252 256.677 60.0931 254.398 63.6738C252.12 67.2546 248.897 69.9238 244.73 71.6816C240.564 73.4069 235.372 74.2695 229.154 74.2695C220.105 74.2695 213.155 72.1862 208.305 68.0195C203.454 63.8203 200.557 57.7168 199.613 49.709Z" fill="white"/>
<path d="M278.389 73V13.5273H257.148V1.41797H314.033V13.5273H292.842V73H278.389Z" fill="white"/>
<path d="M316.178 1.41797H330.631V40.1875C330.631 46.3398 330.81 50.3275 331.168 52.1504C331.786 55.0801 333.251 57.4401 335.562 59.2305C337.906 60.9883 341.096 61.8672 345.133 61.8672C349.234 61.8672 352.327 61.0371 354.41 59.377C356.493 57.6842 357.747 55.6172 358.17 53.1758C358.593 50.7344 358.805 46.6816 358.805 41.0176V1.41797H373.258V39.0156C373.258 47.6094 372.867 53.6803 372.086 57.2285C371.305 60.7767 369.856 63.7715 367.74 66.2129C365.657 68.6543 362.857 70.6074 359.342 72.0723C355.826 73.5046 351.236 74.2207 345.572 74.2207C338.736 74.2207 333.544 73.4395 329.996 71.877C326.48 70.2819 323.697 68.2311 321.646 65.7246C319.596 63.1855 318.245 60.5326 317.594 57.7656C316.65 53.6641 316.178 47.6094 316.178 39.6016V1.41797Z" fill="white"/>
<path d="M381.227 1.41797H407.643C413.6 1.41797 418.141 1.8737 421.266 2.78516C425.465 4.02214 429.062 6.2194 432.057 9.37695C435.051 12.5345 437.33 16.4082 438.893 20.998C440.455 25.5553 441.236 31.1868 441.236 37.8926C441.236 43.7845 440.504 48.8626 439.039 53.127C437.249 58.3353 434.693 62.5508 431.373 65.7734C428.867 68.2148 425.481 70.1191 421.217 71.4863C418.027 72.4954 413.762 73 408.424 73H381.227V1.41797ZM395.68 13.5273V60.9395H406.471C410.507 60.9395 413.421 60.7116 415.211 60.2559C417.555 59.6699 419.492 58.6771 421.021 57.2773C422.584 55.8776 423.854 53.5827 424.83 50.3926C425.807 47.1699 426.295 42.7917 426.295 37.2578C426.295 31.724 425.807 27.4759 424.83 24.5137C423.854 21.5514 422.486 19.2402 420.729 17.5801C418.971 15.9199 416.741 14.7969 414.039 14.2109C412.021 13.7552 408.066 13.5273 402.174 13.5273H395.68Z" fill="white"/>
<path d="M445.836 73V1.41797H460.289V73H445.836Z" fill="white"/>
<path d="M463.346 37.6484C463.346 30.3568 464.436 24.237 466.617 19.2891C468.245 15.6432 470.458 12.3717 473.258 9.47461C476.09 6.57747 479.182 4.42904 482.535 3.0293C486.995 1.14128 492.138 0.197266 497.965 0.197266C508.512 0.197266 516.943 3.46875 523.258 10.0117C529.605 16.5547 532.779 25.653 532.779 37.3066C532.779 48.8626 529.638 57.9121 523.355 64.4551C517.073 70.9655 508.674 74.2207 498.16 74.2207C487.516 74.2207 479.052 70.9818 472.77 64.5039C466.487 57.9935 463.346 49.0417 463.346 37.6484ZM478.238 37.1602C478.238 45.2656 480.11 51.418 483.854 55.6172C487.597 59.7839 492.35 61.8672 498.111 61.8672C503.873 61.8672 508.593 59.8001 512.271 55.666C515.982 51.4993 517.838 45.2656 517.838 36.9648C517.838 28.7617 516.031 22.6419 512.418 18.6055C508.837 14.569 504.068 12.5508 498.111 12.5508C492.154 12.5508 487.353 14.6016 483.707 18.7031C480.061 22.7721 478.238 28.9245 478.238 37.1602Z" fill="white"/>
</svg>
