<svg width="555" height="75" viewBox="0 0 555 75" fill="none" xmlns="http://www.w3.org/2000/svg">
<path d="M27.0742 73V42.873L0.853516 1.41797H17.7969L34.6426 29.7383L51.1465 1.41797H67.7969L41.4785 42.9707V73H27.0742Z" fill="black"/>
<path d="M121.826 73H106.104L99.8535 56.7402H71.2402L65.332 73H50L77.8809 1.41797H93.1641L121.826 73ZM95.2148 44.6797L85.3516 18.1172L75.6836 44.6797H95.2148Z" fill="black"/>
<path d="M130.422 73V1.41797H144.484L173.781 49.2207V1.41797H187.209V73H172.707L143.85 26.3203V73H130.422Z" fill="black"/>
<path d="M196 49.709L210.063 48.3418C210.909 53.0618 212.618 56.5286 215.19 58.7422C217.794 60.9557 221.293 62.0625 225.688 62.0625C230.343 62.0625 233.842 61.0859 236.186 59.1328C238.562 57.1471 239.75 54.8359 239.75 52.1992C239.75 50.5065 239.246 49.0742 238.237 47.9023C237.26 46.6979 235.535 45.6562 233.061 44.7773C231.368 44.1914 227.511 43.1497 221.489 41.6523C213.741 39.7318 208.305 37.3717 205.18 34.5723C200.785 30.6335 198.588 25.832 198.588 20.168C198.588 16.5221 199.614 13.1204 201.664 9.96289C203.748 6.77279 206.726 4.34766 210.6 2.6875C214.506 1.02734 219.21 0.197266 224.711 0.197266C233.696 0.197266 240.45 2.16667 244.975 6.10547C249.532 10.0443 251.925 15.3014 252.153 21.877L237.699 22.5117C237.081 18.8333 235.746 16.1966 233.696 14.6016C231.677 12.974 228.634 12.1602 224.565 12.1602C220.366 12.1602 217.078 13.0228 214.701 14.748C213.172 15.8548 212.407 17.3359 212.407 19.1914C212.407 20.8841 213.123 22.3327 214.555 23.5371C216.378 25.0671 220.805 26.6621 227.836 28.3223C234.867 29.9824 240.06 31.7077 243.412 33.498C246.798 35.2559 249.435 37.681 251.323 40.7734C253.243 43.8333 254.203 47.6257 254.203 52.1504C254.203 56.252 253.064 60.0931 250.785 63.6738C248.507 67.2546 245.284 69.9238 241.117 71.6816C236.951 73.4069 231.759 74.2695 225.541 74.2695C216.492 74.2695 209.542 72.1862 204.692 68.0195C199.841 63.8203 196.944 57.7168 196 49.709Z" fill="black"/>
<path d="M282.241 73V13.5273H261V1.41797H317.885V13.5273H296.694V73H282.241Z" fill="black"/>
<path d="M327 1.41797H341.453V40.1875C341.453 46.3398 341.632 50.3275 341.99 52.1504C342.608 55.0801 344.073 57.4401 346.384 59.2305C348.728 60.9883 351.918 61.8672 355.955 61.8672C360.056 61.8672 363.149 61.0371 365.232 59.377C367.315 57.6842 368.569 55.6172 368.992 53.1758C369.415 50.7344 369.627 46.6816 369.627 41.0176V1.41797H384.08V39.0156C384.08 47.6094 383.689 53.6803 382.908 57.2285C382.127 60.7767 380.678 63.7715 378.562 66.2129C376.479 68.6543 373.679 70.6074 370.164 72.0723C366.648 73.5046 362.058 74.2207 356.394 74.2207C349.558 74.2207 344.366 73.4395 340.818 71.877C337.302 70.2819 334.519 68.2311 332.468 65.7246C330.418 63.1855 329.067 60.5326 328.416 57.7656C327.472 53.6641 327 47.6094 327 39.6016V1.41797Z" fill="black"/>
<path d="M393 1.41797H419.416C425.373 1.41797 429.914 1.8737 433.039 2.78516C437.238 4.02214 440.835 6.2194 443.83 9.37695C446.824 12.5345 449.103 16.4082 450.666 20.998C452.228 25.5553 453.009 31.1868 453.009 37.8926C453.009 43.7845 452.277 48.8626 450.812 53.127C449.022 58.3353 446.466 62.5508 443.146 65.7734C440.64 68.2148 437.254 70.1191 432.99 71.4863C429.8 72.4954 425.535 73 420.197 73H393V1.41797ZM407.453 13.5273V60.9395H418.244C422.28 60.9395 425.194 60.7116 426.984 60.2559C429.328 59.6699 431.265 58.6771 432.794 57.2773C434.357 55.8776 435.627 53.5827 436.603 50.3926C437.58 47.1699 438.068 42.7917 438.068 37.2578C438.068 31.724 437.58 27.4759 436.603 24.5137C435.627 21.5514 434.259 19.2402 432.502 17.5801C430.744 15.9199 428.514 14.7969 425.812 14.2109C423.794 13.7552 419.839 13.5273 413.947 13.5273H407.453Z" fill="black"/>
<path d="M462 73V1.41797H476.453V73H462Z" fill="black"/>
<path d="M485 37.6484C485 30.3568 486.09 24.237 488.271 19.2891C489.899 15.6432 492.112 12.3717 494.912 9.47461C497.744 6.57747 500.836 4.42904 504.189 3.0293C508.649 1.14128 513.792 0.197266 519.619 0.197266C530.166 0.197266 538.597 3.46875 544.912 10.0117C551.259 16.5547 554.433 25.653 554.433 37.3066C554.433 48.8626 551.292 57.9121 545.009 64.4551C538.727 70.9655 530.328 74.2207 519.814 74.2207C509.17 74.2207 500.706 70.9818 494.424 64.5039C488.141 57.9935 485 49.0417 485 37.6484ZM499.892 37.1602C499.892 45.2656 501.764 51.418 505.508 55.6172C509.251 59.7839 514.004 61.8672 519.765 61.8672C525.527 61.8672 530.247 59.8001 533.925 55.666C537.636 51.4993 539.492 45.2656 539.492 36.9648C539.492 28.7617 537.685 22.6419 534.072 18.6055C530.491 14.569 525.722 12.5508 519.765 12.5508C513.808 12.5508 509.007 14.6016 505.361 18.7031C501.715 22.7721 499.892 28.9245 499.892 37.1602Z" fill="black"/>
</svg>
