<svg width="110" height="13" viewBox="0 0 110 13"  xmlns="http://www.w3.org/2000/svg">
<path d="M4.74054 12.7772V7.48978L0 0.214238H3.06325L6.10885 5.18458L9.09268 0.214238H12.1029L7.34474 7.50692V12.7772H4.74054ZM23.4114 12.7772H20.5688L19.4388 9.92349H14.2658L13.1976 12.7772H10.4256L15.4663 0.214238H18.2295L23.4114 12.7772ZM18.6002 7.80683L16.817 3.14502L15.0691 7.80683H18.6002ZM24.8327 12.7772V0.214238H27.375L32.6717 8.60378V0.214238H35.0994V12.7772H32.4776L27.2603 4.58471V12.7772H24.8327ZM42.2411 8.68953L44.7835 8.44959C44.9365 9.27797 45.2455 9.88639 45.7104 10.2749C46.1812 10.6634 46.8139 10.8576 47.6084 10.8576C48.45 10.8576 49.0827 10.6862 49.5063 10.3435C49.936 9.99495 50.1508 9.58928 50.1508 9.12654C50.1508 8.82952 50.0596 8.57813 49.8771 8.37245C49.7006 8.1611 49.3886 7.97824 48.9414 7.82396C48.6353 7.72117 47.938 7.53835 46.8492 7.27554C45.4486 6.93847 44.4657 6.52428 43.9007 6.03296C43.1062 5.34169 42.7089 4.49901 42.7089 3.50494C42.7089 2.86509 42.8944 2.26807 43.2651 1.71391C43.6417 1.15404 44.1802 0.728413 44.8806 0.437051C45.5868 0.145682 46.4372 0 47.4319 0C49.0562 0 50.2774 0.345638 51.0953 1.03692C51.9193 1.72819 52.3519 2.65085 52.3931 3.80488L49.78 3.91628C49.6682 3.27071 49.427 2.80796 49.0562 2.52802C48.6913 2.24236 48.141 2.09954 47.4053 2.09954C46.6462 2.09954 46.0517 2.25094 45.6221 2.55372C45.3455 2.74797 45.2072 3.00791 45.2072 3.33356C45.2072 3.63063 45.3367 3.88486 45.5957 4.09624C45.9252 4.36475 46.7256 4.64469 47.9968 4.93606C49.268 5.22742 50.2067 5.53021 50.8129 5.84443C51.425 6.15293 51.9017 6.57856 52.243 7.12129C52.5902 7.65832 52.7638 8.3239 52.7638 9.11801C52.7638 9.83783 52.5579 10.512 52.1459 11.1404C51.7339 11.7689 51.1513 12.2373 50.398 12.5458C49.6447 12.8486 48.706 13 47.5819 13C45.9458 13 44.6893 12.6344 43.8125 11.9031C42.9355 11.1661 42.4117 10.0949 42.2411 8.68953ZM57.8751 12.7772V2.33948H54.035V0.214238H64.3195V2.33948H60.4882V12.7772H57.8751ZM65.9967 0.214238H68.6098V7.01846C68.6098 8.09825 68.6421 8.79809 68.7069 9.11801C68.8187 9.63216 69.0835 10.0463 69.5013 10.3606C69.9251 10.6691 70.5019 10.8233 71.2316 10.8233C71.9731 10.8233 72.5323 10.6777 72.9089 10.3863C73.2856 10.0892 73.5121 9.72643 73.5887 9.29795C73.6652 8.86946 73.7034 8.15817 73.7034 7.16414V0.214238H76.3165V6.81279C76.3165 8.32106 76.2458 9.38653 76.1046 10.0092C75.9633 10.6319 75.7014 11.1575 75.3189 11.586C74.9423 12.0145 74.4361 12.3573 73.8005 12.6144C73.1649 12.8658 72.3351 12.9914 71.3111 12.9914C70.0751 12.9914 69.1365 12.8543 68.495 12.5801C67.8594 12.3002 67.3562 11.9402 66.9855 11.5004C66.6147 11.0547 66.3704 10.5891 66.2527 10.1035C66.0821 9.38369 65.9967 8.32106 65.9967 6.91563V0.214238ZM79.0707 0.214238H83.8465C84.9236 0.214238 85.7442 0.294224 86.3098 0.454183C87.0691 0.671282 87.7191 1.05691 88.2607 1.61107C88.8022 2.16524 89.2137 2.84509 89.4961 3.65063C89.7785 4.45045 89.9205 5.43881 89.9205 6.61569C89.9205 7.64975 89.7879 8.54102 89.5228 9.28942C89.1991 10.2035 88.7376 10.9433 88.1367 11.5089C87.6838 11.9374 87.0717 12.2716 86.3003 12.5115C85.7244 12.6886 84.953 12.7772 83.9878 12.7772H79.0707V0.214238ZM81.6837 2.33948V10.6605H83.6347C84.3645 10.6605 84.8912 10.6205 85.2149 10.5405C85.6383 10.4377 85.9887 10.2635 86.265 10.0178C86.5483 9.77214 86.7773 9.3694 86.9538 8.80946C87.1303 8.24392 87.2189 7.4755 87.2189 6.50429C87.2189 5.53307 87.1303 4.78752 86.9538 4.26763C86.7773 3.74775 86.5302 3.34212 86.2125 3.05076C85.8948 2.75939 85.4911 2.56229 85.003 2.45946C84.6382 2.37947 83.9231 2.33948 82.8578 2.33948H81.6837ZM92.0651 12.7772V0.214238H94.678V12.7772H92.0651ZM96.6469 6.57284C96.6469 5.29312 96.844 4.21908 97.2383 3.35069C97.5328 2.71083 97.9331 2.13668 98.4393 1.62822C98.9507 1.11975 99.5103 0.742696 100.116 0.497032C100.922 0.165678 101.852 0 102.906 0C104.813 0 106.337 0.574162 107.479 1.72248C108.627 2.87079 109.2 4.46759 109.2 6.51285C109.2 8.54102 108.632 10.1292 107.496 11.2776C106.361 12.4202 104.842 12.9914 102.941 12.9914C101.017 12.9914 99.4862 12.423 98.3507 11.2861C97.2151 10.1435 96.6469 8.57244 96.6469 6.57284ZM99.339 6.48714C99.339 7.90971 99.6782 8.98948 100.355 9.72643C101.032 10.4577 101.891 10.8233 102.932 10.8233C103.974 10.8233 104.827 10.4605 105.492 9.73504C106.164 9.00377 106.498 7.90971 106.498 6.45287C106.498 5.01318 106.172 3.93913 105.519 3.23072C104.871 2.5223 104.009 2.16809 102.932 2.16809C101.855 2.16809 100.988 2.52802 100.328 3.24786C99.6687 3.96199 99.339 5.04175 99.339 6.48714Z"/>
</svg>
