<svg width="10" height="10" viewBox="0 0 10 10"  xmlns="http://www.w3.org/2000/svg">
<path d="M4.98984 0.0181458C4.80838 0.0181458 4.64507 0.181457 4.66321 0.362914V0.38106V1.63311C4.64507 1.81457 4.77209 1.97788 4.95354 2.01417C5.135 2.03232 5.29831 1.9053 5.3346 1.72384C5.3346 1.68755 5.3346 1.6694 5.3346 1.63311V0.38106C5.35275 0.199603 5.20758 0.0181457 5.02613 0C5.00798 0.0181457 4.98984 0.0181458 4.98984 0.0181458ZM4.98984 2.63113C3.68335 2.63113 2.61275 3.68358 2.61275 5.00821C2.61275 6.33285 3.68335 7.3853 4.98984 7.3853C6.29633 7.3853 7.36692 6.3147 7.36692 5.00821C7.34878 3.70172 6.29633 2.64927 4.98984 2.63113ZM4.98984 3.39324C5.87897 3.39324 6.6048 4.11907 6.6048 5.00821C6.6048 5.89735 5.87897 6.62318 4.98984 6.62318V3.39324ZM0.38083 4.68159C0.199374 4.66344 0.0360622 4.79046 -0.000229141 4.97192C-0.0183748 5.15338 0.108645 5.31669 0.290102 5.35298C0.326393 5.35298 0.344539 5.35298 0.38083 5.35298H1.63288C1.81434 5.37112 1.97765 5.2441 2.01394 5.06265C2.03209 4.88119 1.90507 4.71788 1.72361 4.68159C1.68732 4.68159 1.66917 4.68159 1.63288 4.68159H0.38083ZM8.36493 4.68159C8.18348 4.66344 8.02017 4.79046 7.98388 4.97192C7.96573 5.15338 8.09275 5.31669 8.27421 5.35298C8.3105 5.35298 8.32864 5.35298 8.36493 5.35298H9.61699C9.79844 5.37112 9.96176 5.2441 9.99805 5.06265C10.0162 4.88119 9.88917 4.71788 9.70772 4.68159C9.67142 4.68159 9.65328 4.68159 9.61699 4.68159H8.36493ZM4.98984 8.00225C4.80838 8.00225 4.64507 8.16556 4.66321 8.34702V8.36516V9.61722C4.64507 9.79867 4.77209 9.96198 4.95354 9.99828C5.135 10.0164 5.29831 9.8894 5.3346 9.70794C5.3346 9.67165 5.3346 9.65351 5.3346 9.61722V8.36516C5.35275 8.18371 5.20758 8.00225 5.02613 7.9841C5.00798 8.00225 4.98984 8.00225 4.98984 8.00225ZM8.5101 1.4698C8.36493 1.32464 8.12904 1.32464 7.98388 1.4698L7.09474 2.35894C6.94957 2.50411 6.94957 2.74 7.09474 2.88516C7.2399 3.03033 7.4758 3.03033 7.62096 2.88516L8.5101 1.99603C8.67341 1.86901 8.67341 1.63311 8.5101 1.4698C8.52825 1.48795 8.52825 1.48795 8.5101 1.4698ZM1.97765 1.4698C1.83249 1.32464 1.59659 1.32464 1.45143 1.4698C1.30626 1.61497 1.30626 1.85086 1.45143 1.99603L2.34057 2.88516C2.48573 3.03033 2.72162 3.03033 2.86679 2.88516C3.01196 2.74 3.01196 2.50411 2.86679 2.35894L1.97765 1.4698ZM7.63911 7.13126C7.49394 6.98609 7.25805 6.98609 7.11288 7.13126C6.96772 7.27642 6.96772 7.51232 7.11288 7.65748L8.00202 8.54662C8.14719 8.69179 8.38308 8.69179 8.52825 8.54662C8.67341 8.40145 8.67341 8.16556 8.52825 8.02039L7.63911 7.13126ZM2.86679 7.13126C2.72162 6.98609 2.48573 6.98609 2.34057 7.13126L1.45143 8.02039C1.30626 8.16556 1.30626 8.40145 1.45143 8.54662C1.59659 8.69179 1.83249 8.69179 1.97765 8.54662L2.86679 7.65748C3.01196 7.51232 3.01196 7.27642 2.86679 7.13126Z" />
</svg>
